<svg xmlns="http://www.w3.org/2000/svg" id="prefix__agriculture" width="79.124" height="72.942" viewBox="0 0 79.124 72.942">
    <path id="prefix__Path_233" d="M78.671 70.8l-9.924-9.92a7.937 7.937 0 0 0-4.113-2.188V38.676q.486.041.969.04a11.694 11.694 0 0 0 11.38-14.277 1.545 1.545 0 0 0-1.167-1.167 11.643 11.643 0 0 0-10.85 3.135c-.113.113-.223.229-.331.345v-8.088a9.613 9.613 0 0 0-.72-15.764 1.546 1.546 0 0 0-1.652 0 9.613 9.613 0 0 0-.72 15.762v2.028a10.382 10.382 0 0 0-9.643-2.757 1.546 1.546 0 0 0-1.163 1.167 10.429 10.429 0 0 0 10.149 12.733c.219 0 .438-.009.658-.022v6.207q-.3-.349-.63-.679A12.657 12.657 0 0 0 49.246 33.9a4.957 4.957 0 0 0-4.9-4.246h-9.929L29.79 23.3a8.778 8.778 0 0 0-2.39-2.24 7.475 7.475 0 0 0 4.6-6.89v-3.695h2.383a1.545 1.545 0 1 0 0-3.091h-1.959V4.909A4.413 4.413 0 0 0 28.015.5h-7.306A4.413 4.413 0 0 0 16.3 4.909v2.475h-1.957a1.545 1.545 0 0 0 0 3.091h2.729v3.694a7.456 7.456 0 0 0 2.919 5.915 8.828 8.828 0 0 0-6.142 8.4v16.825a9.776 9.776 0 0 0 4.9 8.468v9.928H4.868a4.868 4.868 0 1 0 0 9.736h1.99a1.545 1.545 0 1 0 0-3.091h-1.99a1.777 1.777 0 1 1 0-3.554H20.3a1.545 1.545 0 0 0 1.545-1.545V54.917a9.76 9.76 0 0 0 1.779.165h3.061v10a5.279 5.279 0 0 1-5.273 5.273h-2.19a1.545 1.545 0 1 0 0 3.091h2.19a8.373 8.373 0 0 0 8.364-8.364v-10h5.652v13.492a4.868 4.868 0 0 0 9.736 0V51.807a8.372 8.372 0 0 0-8.364-8.364h-7.445v-3.959a1.547 1.547 0 0 0 .472.074h14.521a4.93 4.93 0 0 0 3.289-1.258A12.72 12.72 0 0 0 60.32 50.62q.61 0 1.224-.06v8.14a7.933 7.933 0 0 0-4.089 2.182l-9.878 9.878a1.545 1.545 0 1 0 2.185 2.185l9.878-9.877a4.9 4.9 0 0 1 6.922 0l9.924 9.923a1.545 1.545 0 0 0 2.185-2.191zM61.519 28.715a7.334 7.334 0 0 1-7.919-7.923 7.334 7.334 0 0 1 7.922 7.922zm5.632-.123a8.556 8.556 0 0 1 6.984-2.471 8.6 8.6 0 0 1-9.455 9.455c-.028-.262-.04-.523-.045-.784v-.3a8.552 8.552 0 0 1 2.515-5.9zM63.089 6.131a6.523 6.523 0 0 1 0 9.807 6.523 6.523 0 0 1 0-9.807zm-34.181 8.038a4.373 4.373 0 0 1-8.746 0v-3.694h8.746zm-9.516-9.26a1.319 1.319 0 0 1 1.318-1.318h7.306a1.319 1.319 0 0 1 1.318 1.318v2.475h-9.942zM36.8 46.534a5.279 5.279 0 0 1 5.272 5.273v16.767a1.777 1.777 0 1 1-3.554 0V53.537a1.546 1.546 0 0 0-1.545-1.545H23.622a6.692 6.692 0 0 1-6.568-5.458zm7.548-10.066H30.52l-3-3.375a1.546 1.546 0 1 0-2.31 2.054l1.056 1.186v7.11H16.94v-14.96a5.723 5.723 0 0 1 10.35-3.367l5.09 7a1.544 1.544 0 0 0 1.25.636h10.718a1.86 1.86 0 1 1 0 3.719zm17.13 10.992a9.62 9.62 0 0 1-10.686-10.686 9.618 9.618 0 0 1 10.752 9.461v.219a9.753 9.753 0 0 1-.066 1.006zm0 0" data-name="Path 233" transform="translate(0 -.5)" style="fill:#fff"/>
</svg>
