<svg xmlns="http://www.w3.org/2000/svg" id="prefix__business-and-finance" width="71" height="71" viewBox="0 0 71 71">
    <defs>
        <style>
            .prefix__cls-1{fill:#041243}
        </style>
    </defs>
    <path id="prefix__Path_212" d="M75.565 8h-64.13A3.44 3.44 0 0 0 8 11.435v64.13A3.44 3.44 0 0 0 11.435 79h64.13A3.44 3.44 0 0 0 79 75.565v-64.13A3.44 3.44 0 0 0 75.565 8zm1.145 67.565a1.147 1.147 0 0 1-1.145 1.145h-64.13a1.147 1.147 0 0 1-1.145-1.145v-58.4h66.42zm0-60.694H10.29v-3.436a1.147 1.147 0 0 1 1.145-1.145h64.13a1.147 1.147 0 0 1 1.145 1.145z" class="prefix__cls-1" data-name="Path 212" transform="translate(-8 -8)"/>
    <path id="prefix__Path_213" d="M70.238 410.411l-4.581-2.29A1.145 1.145 0 0 0 64 409.145v4.581a1.145 1.145 0 0 0 1.657 1.024l4.581-2.29a1.145 1.145 0 0 0 0-2.048zm-3.948 1.462V411l.875.438z" class="prefix__cls-1" data-name="Path 213" transform="translate(-55.984 -350.742)"/>
    <circle id="prefix__Ellipse_13" cx="1.5" cy="1.5" r="1.5" class="prefix__cls-1" data-name="Ellipse 13" transform="translate(3.716 3)"/>
    <ellipse id="prefix__Ellipse_14" cx="1" cy="1.5" class="prefix__cls-1" data-name="Ellipse 14" rx="1" ry="1.5" transform="translate(7.716 3)"/>
    <circle id="prefix__Ellipse_15" cx="1.5" cy="1.5" r="1.5" class="prefix__cls-1" data-name="Ellipse 15" transform="translate(10.716 3)"/>
    <path id="prefix__Path_214" d="M33.145 267.469h61.839a1.145 1.145 0 0 0 1.145-1.145v-11.452a1.145 1.145 0 0 0-1.145-1.145H75.373v-1.757a9.819 9.819 0 0 0-5.669-8.918A6.943 6.943 0 1 0 58.532 243a9.82 9.82 0 0 0-5.776 8.967v1.756H33.145A1.145 1.145 0 0 0 32 254.872v11.452a1.145 1.145 0 0 0 1.145 1.145zm30.991-33.21a4.651 4.651 0 0 1 2.973 8.228 1.127 1.127 0 0 0-.365.275 4.652 4.652 0 1 1-2.608-8.5zm-9.09 17.711a7.537 7.537 0 0 1 5.338-7.223 6.917 6.917 0 0 0 7.456.032 7.531 7.531 0 0 1 5.242 7.192v1.756H55.046zm-20.756 4.047h59.549v9.161H34.29z" class="prefix__cls-1" data-name="Path 214" transform="translate(-28.565 -199.904)"/>
    <path id="prefix__Path_215" d="M172.661 410.291H163.3a3.434 3.434 0 0 0-6.476 0h-27.679a1.145 1.145 0 0 0 0 2.29h27.681a3.434 3.434 0 0 0 6.476 0h9.359a1.145 1.145 0 1 0 0-2.29zm-12.6 2.29a1.145 1.145 0 1 1 1.145-1.145 1.145 1.145 0 0 1-1.141 1.146z" class="prefix__cls-1" data-name="Path 215" transform="translate(-110.823 -350.743)"/>
    <path id="prefix__Path_216" d="M313.145 145.177h3.229l-.923 5.537a1.145 1.145 0 0 0 2.01.922l5.382-6.459h8.625a1.145 1.145 0 0 0 1.145-1.145v-14.887a1.145 1.145 0 0 0-1.145-1.145h-18.323a1.145 1.145 0 0 0-1.145 1.145v14.887a1.145 1.145 0 0 0 1.145 1.145zm1.145-14.887h16.032v12.6h-8.016a1.145 1.145 0 0 0-.88.412l-3.022 3.626.451-2.7a1.146 1.146 0 0 0-1.129-1.334h-3.436z" class="prefix__cls-1" data-name="Path 216" transform="translate(-268.484 -110.823)"/>
    <path id="prefix__Path_217" d="M337.145 154.29H348.6a1.145 1.145 0 1 0 0-2.29h-11.455a1.145 1.145 0 0 0 0 2.29z" class="prefix__cls-1" data-name="Path 217" transform="translate(-289.048 -131.387)"/>
    <path id="prefix__Path_218" d="M337.145 178.29H348.6a1.145 1.145 0 1 0 0-2.29h-11.455a1.145 1.145 0 0 0 0 2.29z" class="prefix__cls-1" data-name="Path 218" transform="translate(-289.048 -151.952)"/>
    <path id="prefix__Path_219" d="M342.871 201.145a1.145 1.145 0 0 0-1.145-1.145h-4.581a1.145 1.145 0 0 0 0 2.29h4.581a1.145 1.145 0 0 0 1.145-1.145z" class="prefix__cls-1" data-name="Path 219" transform="translate(-289.048 -172.516)"/>
    <path id="prefix__Path_220" d="M55.545 81.343a1.145 1.145 0 0 0-1.066-.116l-4.156 1.662v-1.744A1.145 1.145 0 0 0 49.177 80H33.145A1.145 1.145 0 0 0 32 81.145v13.742a1.145 1.145 0 0 0 1.145 1.145h16.032a1.145 1.145 0 0 0 1.145-1.145v-1.743l4.156 1.662a1.146 1.146 0 0 0 1.57-1.064V82.29a1.143 1.143 0 0 0-.5-.948zm-7.512 12.4H34.29V82.29h13.742zm5.726-1.692l-3.435-1.374v-5.321l3.435-1.374z" class="prefix__cls-1" data-name="Path 220" transform="translate(-28.565 -69.694)"/>
    <path id="prefix__Path_221" d="M79.461 107.6l-5.726-3.435a1.145 1.145 0 0 0-1.735.982v6.871a1.145 1.145 0 0 0 1.735.982l5.726-3.436a1.145 1.145 0 0 0 0-1.964zm-5.17 2.395v-2.826l2.355 1.413z" class="prefix__cls-1" data-name="Path 221" transform="translate(-62.839 -90.256)"/>
</svg>
