<svg xmlns="http://www.w3.org/2000/svg" id="prefix__Architecture_Building" width="74.728" height="74.488" data-name="Architecture &amp; Building" viewBox="0 0 74.728 74.488">
    <defs>
        <style>
            .prefix__cls-1{fill:#fff}
        </style>
    </defs>
    <g id="prefix__Group_56" data-name="Group 56" transform="translate(54.113 54.017)">
        <g id="prefix__Group_55" data-name="Group 55">
            <path id="prefix__Path_234" d="M373.107 360.827a1.023 1.023 0 0 0-1.115.222l-11.176 11.176a1.023 1.023 0 0 0 .723 1.746h11.176a1.023 1.023 0 0 0 1.023-1.023v-11.176a1.023 1.023 0 0 0-.631-.945zm-9.1 11.1l7.685-7.685v7.685z" class="prefix__cls-1" data-name="Path 234" transform="translate(-360.517 -360.749)"/>
        </g>
    </g>
    <g id="prefix__Group_58" data-name="Group 58">
        <g id="prefix__Group_57" data-name="Group 57">
            <path id="prefix__Path_235" d="M74.051 35.855a1.1 1.1 0 0 0-1.2.238l-3.281 3.285V17.043a1.1 1.1 0 0 0-1.1-1.1h-8.424l3.059-3.059 2.948-2.948a3.345 3.345 0 0 0 0-4.73L62.646 1.8a3.345 3.345 0 0 0-4.73 0l-2.949 2.948L51.4 8.312l-7.634 7.634H9.723V5.095A1.1 1.1 0 0 0 8.627 4 8.637 8.637 0 0 0 0 12.625v46.586a1.1 1.1 0 0 0 .026.236 8.308 8.308 0 0 0 8.283 7.677h33.516l-6.312 6.312a1.1 1.1 0 0 0 .776 1.872h37.342a1.1 1.1 0 0 0 1.1-1.1V36.869a1.1 1.1 0 0 0-.68-1.014zM59.467 3.351a1.152 1.152 0 0 1 1.627 0L64.5 6.759a1.152 1.152 0 0 1 0 1.627l-2.17 2.174-5.036-5.036zm-3.724 3.724l5.036 5.036-2.013 2.013-5.036-5.036zm16.791 42.118h-2.023a1.1 1.1 0 1 0 0 2.194h2.024v3.305h-2.024a1.1 1.1 0 1 0 0 2.194h2.024v3.305h-2.024a1.1 1.1 0 1 0 0 2.194h2.024v3.305h-2.024a1.1 1.1 0 1 0 0 2.194h2.024v5.231h-33.6l11.08-11.079a1.1 1.1 0 0 0-1.551-1.551l-4.445 4.445H8.309A6.08 6.08 0 0 1 2.2 59.012q.009-.313.048-.619.018-.146.044-.29l.006-.033q.023-.129.051-.256l.016-.071q.025-.108.054-.214c.011-.039.021-.077.033-.115l.05-.166c.017-.055.036-.109.056-.164.013-.038.026-.076.041-.114.027-.072.055-.143.084-.213l.025-.061c.038-.088.076-.174.118-.26l.005-.011a6.457 6.457 0 0 1 4.488-3.51h.017c.091-.019.182-.034.275-.049l.046-.008c.083-.013.168-.023.252-.032l.071-.009c.081-.008.163-.014.245-.019l.078-.006q.161-.008.324-.008a1.1 1.1 0 0 0 1.1-1.1v-7.956a1.1 1.1 0 0 0-2.194 0v6.925A8.567 8.567 0 0 0 2.6 53.037c-.143.139-.278.284-.409.431V12.625a6.444 6.444 0 0 1 5.339-6.34v33.056a1.1 1.1 0 1 0 2.194 0V18.14h31.852l-6.064 6.06a1.1 1.1 0 0 0 1.551 1.551L45 17.818l7.179-7.179 5.036 5.036-.591.591-22.118 22.117-5.036-5.036 4.359-4.359a1.1 1.1 0 1 0-1.551-1.551l-5.135 5.135a1.1 1.1 0 0 0-.077.086l-.023.031c-.015.021-.031.041-.045.063l-.023.038c-.012.02-.024.041-.034.062l-.02.042c-.007.014-.019.043-.027.065s-.007.015-.009.023l-2.137 6.053-1.457 4.127a1.108 1.108 0 0 0-.043.167H19.6a1.1 1.1 0 1 0 0 2.194h30.375a1.1 1.1 0 1 0 0-2.194H28.182l6.689-2.361.016-.007c.026-.01.052-.02.077-.032l.03-.014c.026-.013.052-.028.077-.043l.025-.015c.026-.017.052-.035.077-.055l.019-.014a1.1 1.1 0 0 0 .089-.079L57.852 18.14h9.524v23.432L51.687 57.261a1.1 1.1 0 0 0 0 1.551 1.12 1.12 0 0 0 .083.075 1.1 1.1 0 0 0 1.468-.075l19.3-19.3zM32.5 39.479l-3.142 1.109-2.093-2.088 1.109-3.142z" class="prefix__cls-1" data-name="Path 235" transform="translate(0 -.82)"/>
        </g>
    </g>
</svg>
