<svg xmlns="http://www.w3.org/2000/svg" id="prefix__Group_326" width="78.244" height="78.244" data-name="Group 326" viewBox="0 0 78.244 78.244">
    <defs>
        <style>
            .prefix__cls-1{fill:#fff}
        </style>
    </defs>
    <path id="prefix__Path_299" d="M40.3 28.608h6.52a1.3 1.3 0 1 0 0-2.608H40.3a1.3 1.3 0 0 0 0 2.608z" class="prefix__cls-1" data-name="Path 299" transform="translate(9.251 5.298)"/>
    <path id="prefix__Path_300" d="M78.94 29.041a1.3 1.3 0 0 0-1.3 1.3v43.038H11.129a6.52 6.52 0 1 1 6.52-6.52 1.3 1.3 0 1 0 2.608 0v-35.21h3.912a1.3 1.3 0 0 0 0-2.608h-3.912v-3.912a9.129 9.129 0 1 0-18.257 0v41.73a9.139 9.139 0 0 0 9.129 9.128H78.94a1.3 1.3 0 0 0 1.3-1.3V30.345a1.3 1.3 0 0 0-1.3-1.304zM4.608 25.129a6.52 6.52 0 0 1 13.041 0v35.34a9.117 9.117 0 0 0-13.041 0z" class="prefix__cls-1" data-name="Path 300" transform="translate(-2 2.257)"/>
    <path id="prefix__Path_301" d="M48.093 49.432l2.087 5.216 3.13 7.824a1.3 1.3 0 0 0 2.423 0l3.13-7.824 2.087-5.216a1.288 1.288 0 0 0 .08-.432c0-.017.01-.031.01-.05V26.777a1.3 1.3 0 0 0-2.608 0v20.866h-2.608V17.649h2.608v3.912a1.3 1.3 0 0 0 2.608 0V8.52a6.52 6.52 0 0 0-13.04 0v40.427c0 .018.009.033.01.051a1.287 1.287 0 0 0 .082.434zm5.224 6.035h2.407l-1.2 3.01zm3.451-2.608h-4.495l-1.043-2.608h6.58zm-3.551-5.216h-2.609V17.649h2.608zm-2.608-32.6v-2.61h7.824v2.608zm0-6.52a3.912 3.912 0 0 1 7.824 0v1.3h-7.825z" class="prefix__cls-1" data-name="Path 301" transform="translate(11.987 -2)"/>
    <path id="prefix__Path_302" d="M25.525 26.472v.628a3.889 3.889 0 0 0 0 7.345v.244a7.834 7.834 0 0 0 5.4 7.433 10.824 10.824 0 0 1-5.059 2.869l-1.989.5a6.43 6.43 0 0 0 1.56 12.673h2.7a1.3 1.3 0 1 0 0-2.608h-2.7a3.822 3.822 0 0 1-.926-7.53l1.989-.5a13.432 13.432 0 0 0 7.536-5.048 7.831 7.831 0 0 0 7.141-7.791v-.24a3.889 3.889 0 0 0 0-7.345v-.631a11.7 11.7 0 0 0 2.278-14.7A1.3 1.3 0 0 0 41.2 13.1a9.092 9.092 0 0 1-2.152 11.748 1.3 1.3 0 0 0-.488 1.017v1h-1.146l1.144-10.289a1.3 1.3 0 0 0-1.708-1.381l-3.5 1.167-3.5-1.167a1.3 1.3 0 0 0-1.708 1.381l1.144 10.289h-1.153v-.991a1.3 1.3 0 0 0-.488-1.017 9.119 9.119 0 0 1 10.332-14.98A1.3 1.3 0 1 0 39.3 7.63a11.729 11.729 0 0 0-13.775 18.842zM33.349 39.9a5.216 5.216 0 0 1-5.216-5.216h10.432a5.216 5.216 0 0 1-5.216 5.216zm-2.39-21.592l1.978.66a1.3 1.3 0 0 0 .824 0l1.978-.66-.949 8.551h-2.875zm-.218 11.159h9.129a1.3 1.3 0 0 1 0 2.608H26.829a1.3 1.3 0 1 1 0-2.608z" class="prefix__cls-1" data-name="Path 302" transform="translate(3.165 -.781)"/>
    <ellipse id="prefix__Ellipse_219" cx="1" cy=".5" class="prefix__cls-1" data-name="Ellipse 219" rx="1" ry=".5" transform="translate(19.329 16.307)"/>
    <ellipse id="prefix__Ellipse_220" cx="1.5" cy=".5" class="prefix__cls-1" data-name="Ellipse 220" rx="1.5" ry=".5" transform="translate(51.329 16.307)"/>
    <ellipse id="prefix__Ellipse_221" cx="2" cy="1" class="prefix__cls-1" data-name="Ellipse 221" rx="2" ry="1" transform="translate(34.329 .307)"/>
    <path id="prefix__Path_303" d="M19.26 10.433a1.3 1.3 0 1 0-.477-1.781 1.3 1.3 0 0 0 .477 1.781z" class="prefix__cls-1" data-name="Path 303" transform="translate(3.05 -.176)"/>
    <path id="prefix__Path_304" d="M40.044 22.433a1.3 1.3 0 1 0-.477-1.781 1.3 1.3 0 0 0 .477 1.781z" class="prefix__cls-1" data-name="Path 304" transform="translate(9.37 3.473)"/>
    <circle id="prefix__Ellipse_222" cx="1.304" cy="1.304" r="1.304" class="prefix__cls-1" data-name="Ellipse 222" transform="rotate(-14.98 30.71 -160.992)"/>
    <path id="prefix__Path_305" d="M41.348 10.433a1.3 1.3 0 1 0-1.781-.477 1.3 1.3 0 0 0 1.781.477z" class="prefix__cls-1" data-name="Path 305" transform="translate(9.37 -.176)"/>
    <path id="prefix__Path_306" d="M21.041 20.652a1.3 1.3 0 1 0-.477 1.781 1.3 1.3 0 0 0 .477-1.781z" class="prefix__cls-1" data-name="Path 306" transform="translate(3.05 3.473)"/>
    <path id="prefix__Path_307" d="M24.956 6.041a1.3 1.3 0 1 0-1.781-.477 1.3 1.3 0 0 0 1.781.477z" class="prefix__cls-1" data-name="Path 307" transform="translate(4.385 -1.511)"/>
    <path id="prefix__Path_308" d="M37.107 59.473h5.216a1.3 1.3 0 0 0 1.3-1.3v-2.196a8.959 8.959 0 0 0 1.27-.732l1.9 1.1a1.3 1.3 0 0 0 1.781-.477l2.608-4.517a1.3 1.3 0 0 0-.477-1.781l-1.894-1.094c.021-.246.031-.49.031-.734s-.01-.488-.031-.734l1.894-1.094a1.3 1.3 0 0 0 .477-1.781l-2.607-4.523a1.3 1.3 0 0 0-1.781-.477l-1.9 1.1a8.959 8.959 0 0 0-1.27-.732V37.3a1.3 1.3 0 0 0-1.3-1.3h-5.217a1.3 1.3 0 0 0-1.3 1.3v2.2a8.959 8.959 0 0 0-1.27.732l-1.9-1.1a1.3 1.3 0 0 0-1.781.477l-2.608 4.517a1.3 1.3 0 0 0 .477 1.781L30.618 47c-.021.246-.031.49-.031.734s.01.488.031.734l-1.894 1.094a1.3 1.3 0 1 0 1.3 2.259l2.645-1.531a1.3 1.3 0 0 0 .631-1.365 6.234 6.234 0 0 1 0-2.381 1.3 1.3 0 0 0-.631-1.365l-1.517-.879 1.3-2.259 1.521.879a1.3 1.3 0 0 0 1.5-.138 6.512 6.512 0 0 1 2.06-1.188 1.3 1.3 0 0 0 .874-1.228v-1.758h2.608v1.759a1.3 1.3 0 0 0 .869 1.228 6.512 6.512 0 0 1 2.06 1.188 1.3 1.3 0 0 0 1.5.138l1.521-.879 1.3 2.259-1.515.879a1.3 1.3 0 0 0-.631 1.365 6.233 6.233 0 0 1 0 2.381 1.3 1.3 0 0 0 .631 1.365l1.521.879-1.3 2.259-1.521-.879a1.3 1.3 0 0 0-1.5.138 6.513 6.513 0 0 1-2.06 1.188 1.3 1.3 0 0 0-.869 1.228v1.759h-2.61v-1.757a1.3 1.3 0 0 0-.869-1.228 6.513 6.513 0 0 1-2.06-1.188 1.3 1.3 0 0 0-1.5-.138l-2.65 1.531a1.3 1.3 0 1 0 1.3 2.259l1.9-1.1a8.959 8.959 0 0 0 1.27.732v2.192a1.3 1.3 0 0 0 1.305 1.307z" class="prefix__cls-1" data-name="Path 308" transform="translate(5.928 8.338)"/>
    <path id="prefix__Path_309" d="M41.824 45.912a3.912 3.912 0 1 0-3.912 3.912 3.912 3.912 0 0 0 3.912-3.912zm-5.216 0a1.3 1.3 0 1 1 1.3 1.3 1.3 1.3 0 0 1-1.3-1.3z" class="prefix__cls-1" data-name="Path 309" transform="translate(7.73 10.163)"/>
    <path id="prefix__Path_310" d="M38.3 60.129h15.653a5.216 5.216 0 0 0 5.216-5.216V52.3a1.3 1.3 0 1 0-2.608 0v2.608a2.608 2.608 0 0 1-2.608 2.608H38.3a1.3 1.3 0 1 0 0 2.608z" class="prefix__cls-1" data-name="Path 310" transform="translate(8.643 12.9)"/>
    <path id="prefix__Path_311" d="M20 54.912A3.912 3.912 0 1 0 23.912 51 3.912 3.912 0 0 0 20 54.912zm5.216 0a1.3 1.3 0 1 1-1.3-1.3 1.3 1.3 0 0 1 1.3 1.3z" class="prefix__cls-1" data-name="Path 311" transform="translate(3.473 12.9)"/>
</svg>
