<svg xmlns="http://www.w3.org/2000/svg" width="81.569" height="81.563" viewBox="0 0 81.569 81.563">
    <defs>
        <style>
            .prefix__cls-1{fill:#fff}
        </style>
    </defs>
    <g id="prefix__Group_327" data-name="Group 327" transform="translate(-1258.016 -4220.352)">
        <path id="prefix__Path_297" d="M54 97.011l-2.55-.638.889-8-2.7-.3-.886 7.967h-2.868V77.013a1.359 1.359 0 0 0-1.359-1.359h-1.36v-5.438h2.768a5.12 5.12 0 0 1 3.6 1.49 5.052 5.052 0 0 1 1.49 3.6 4.9 4.9 0 0 1-.031.562l-1.051 9.454 2.7.3 1.05-9.45a7.526 7.526 0 0 0 .048-.867 7.754 7.754 0 0 0-2.286-5.519 7.859 7.859 0 0 0-5.52-2.286h-8.205v-3.669l2.087-3.13a6.736 6.736 0 0 0 2.027-.314l4.492 4.043a1.362 1.362 0 0 0 .155.121 8.7 8.7 0 0 0 4.832 1.468c.268 0 .535-.014.8-.039a12.257 12.257 0 0 0 13.708-8.588l.639-2.128h1l5.275 1.319a1.419 1.419 0 0 0 1.166-.247 1.359 1.359 0 0 0 .523-1.072v-8.158a1.359 1.359 0 0 0-1.689-1.319l-5.275 1.319H62.2a1.359 1.359 0 0 0-.9.336l-9.918 8.678-5.743-5.743-1.051-2.1a5.447 5.447 0 0 0 4.012-5.249v-.034a1.359 1.359 0 0 0 1.062-1.325v-4.153l1.259-1.258a1.359 1.359 0 0 0 .255-1.569l-1.514-3.027v-.508a7.117 7.117 0 0 0-2.1-5.061 7.327 7.327 0 0 0-5.06-2.1c-2.7 0-5.245-.082-7.557 1.537a5.437 5.437 0 1 0-5.429 9.084l.821-2.592a2.719 2.719 0 1 1 2.649-4.606 8.856 8.856 0 0 0-1.757 6.51A24.907 24.907 0 0 0 34 41.846l-9.865 20.929V53.9a4.078 4.078 0 0 0-8.156 0v2.719H18.7V53.9a1.359 1.359 0 0 1 2.719 0v27.191h-1.363a1.361 1.361 0 0 1-1.356-1.359V59.341h-2.722v20.391a4.083 4.083 0 0 0 4.078 4.078h1.359v2.719a1.359 1.359 0 0 0 1.359 1.359h1.359v7.1l-4.262 1.065a4.078 4.078 0 1 0 3.219 6.793h10.243a4.077 4.077 0 1 0 3.219-6.793l-4.262-1.065v-7.1h4.078a1.359 1.359 0 0 0 1.359-1.359V83.81h4.078a4.08 4.08 0 0 0 1.359-.231v19.263a1.359 1.359 0 0 0 1.359 1.359h8.587a3.649 3.649 0 0 0 .89-7.19zM40.447 75.654h-2.718v-5.438h2.719zM37.729 40.61v2.418a5.428 5.428 0 0 0 .172 1.359h-2.094zm-2.719 8.9a2.4 2.4 0 0 1 2.4-2.4h.117a2.386 2.386 0 0 1 1.7.7l3.322 3.323-3.463 3.116-3.283-2.955a2.4 2.4 0 0 1-.793-1.785zm22.833 13.148l5.494-6.41-.109.362a9.5 9.5 0 0 1-5.385 6.048zm13.87-9.136l-2.719-.68v-3.315l2.719-.68zM52.218 59l10.491-9.179h3.567v2.719h-2.719a1.359 1.359 0 0 0-1.032.475l-8.025 9.37a5.976 5.976 0 0 1-6.42-.045l-6.96-6.262 3.356-3.021 5.885 5.885a1.359 1.359 0 0 0 1.857.058zm-8.9-13.266l-.03-.059 1.037-2.651h1.556a2.72 2.72 0 0 1-2.559 2.715zm3.769-13.148l1.219 2.437-.964.964a1.359 1.359 0 0 0-.4.961v3.356H43.4a1.359 1.359 0 0 0-1.266.865l-1.256 3.214h-.063a2.7 2.7 0 0 1-.368-1.359v-9.512h-2.189a.677.677 0 0 1-.03-.421.665.665 0 0 1 .377-.449c.363-.163.714.081 1.028.242a1.359 1.359 0 0 0 1.708-.394l3.723-4.963a4.5 4.5 0 0 1 .582.488 4.415 4.415 0 0 1 1.3 3.138v.829a1.358 1.358 0 0 0 .145.609zm-13.16.976a6.943 6.943 0 0 1 1.425-4.748c1.778-2.1 4.385-2.1 6.918-2.1l-2.459 3.278a3.395 3.395 0 0 0-3.333 5.664l.54.54-1.438 2.66a23 23 0 0 1-1.655-5.29zm2.438 65.2a1.359 1.359 0 1 1-1.176 2.037 1.359 1.359 0 0 0-1.176-.678H22.409a1.359 1.359 0 0 0-1.176.678 1.359 1.359 0 1 1-1.176-2.037c.111 0 5.6-1.359 5.6-1.359h5.1s5.501 1.36 5.612 1.36zm-6.8-4.078h-2.712v-6.8h2.719zm5.438-9.516H24.135V69.16l8.449-17.953a5.123 5.123 0 0 0 1.4 2.108l4.192 3.772.992.893h-.083a1.359 1.359 0 0 0-1.131.605l-2.719 4.078a1.36 1.36 0 0 0-.228.754zm7.761-4.477a1.358 1.358 0 0 1-.964.4h-4.071v-2.719h4.078a1.361 1.361 0 0 1 .964 2.32zm10.34 20.79h-7.219v-2.718H49.8l3.541.885a.931.931 0 0 1-.226 1.834z" class="prefix__cls-1" data-name="Path 297" transform="translate(1242.042 4197.714)"/>
        <path id="prefix__Rectangle_454" d="M0 0H5.438V2.719H0z" class="prefix__cls-1" data-name="Rectangle 454" transform="translate(1268.896 4267.931)"/>
        <path id="prefix__Path_298" d="M310.063 64.938V47.266a4.077 4.077 0 0 0-5.438-3.844V22.8a6.8 6.8 0 0 0-6.8-6.8h-9.516a1.359 1.359 0 0 0-1.359 1.359v2.719a4.083 4.083 0 0 0 2.324 3.681l-2.255 6.764a1.359 1.359 0 0 0 1.29 1.789h1.359v4.078a1.359 1.359 0 0 0 1.359 1.359h2.719v2.175a15.173 15.173 0 0 0-4.078 10.389v5.67l-9.629.8a1.362 1.362 0 0 0-.5.139l-5.438 2.719a1.359 1.359 0 0 0-.751 1.216v4.078a1.359 1.359 0 0 0 1.359 1.359h2.719a1.364 1.364 0 0 0 .43-.07l3.869-1.29h17.451a5.4 5.4 0 0 0 2.719-.732v.732a4.083 4.083 0 0 1-4.078 4.078h-16.303a1.359 1.359 0 0 0-1.333 1.626l3.753 18.765h-4.048l-4.488-20.2a4.574 4.574 0 0 1-.11-1h-2.719a7.29 7.29 0 0 0 .175 1.595l4.354 19.609h-1.024a4.078 4.078 0 1 0 0 8.156h9.516a1.359 1.359 0 0 0 1.328-1.071 4.069 4.069 0 0 0 5.786-.289h10.241a4.077 4.077 0 1 0 3.219-6.793l-4.262-1.065v-8.623h-2.719v8.326h-2.719V77.173h9.516a4.083 4.083 0 0 0 4.078-4.078v-5.268h-2.719v5.268a1.361 1.361 0 0 1-1.359 1.359h-20.388a1.359 1.359 0 0 1 0-2.719h17.672a1.359 1.359 0 0 0 1.359-1.359v-23.11a1.359 1.359 0 1 1 2.719 0v17.672zm-25.828 29.907h-8.156a1.359 1.359 0 0 1 0-2.719h8.156zm16.145-4.078l5.275 1.319a1.355 1.355 0 0 0 .33.041 1.359 1.359 0 1 1-1.176 2.037 1.359 1.359 0 0 0-1.176-.678h-11.609a1.359 1.359 0 0 0-1.176.678 1.359 1.359 0 1 1-1.176-2.037 1.355 1.355 0 0 0 .33-.041l5.275-1.319zm-14.786-13.594h8.156v11.173l-4.262 1.065a4.061 4.061 0 0 0-2.566 1.066l-2.709-13.546a4.06 4.06 0 0 0 1.381.242zm12.235-33.305a2.039 2.039 0 0 1 4.078 0v3.4h-4.078zm-8.156-25.149h8.156a4.083 4.083 0 0 1 4.078 4.078v1.359l-1.631-2.175a1.359 1.359 0 0 0-1.088-.544h-8.156a1.361 1.361 0 0 1-1.359-1.359zm2.719 16.313v-4.079a1.359 1.359 0 0 0-1.359-1.359h-.833l1.813-5.438h6.5l3.4 4.531V39.11h-5.438v-2.719a1.359 1.359 0 0 0-1.359-1.359zm0 15.283a12.469 12.469 0 0 1 3.06-8.214 4.733 4.733 0 0 0-.342 1.767v11.663l-2.719.227zm6.8 11.9h-17.676a1.364 1.364 0 0 0-.43.07l-3.869 1.29h-1.138V61.7l4.452-2.226 16.052-1.338a1.359 1.359 0 0 0 1.246-1.355v-6.8h4.078V59.5a2.722 2.722 0 0 1-2.719 2.719z" class="prefix__cls-1" data-name="Path 298" transform="translate(1029.521 4204.352)"/>
    </g>
</svg>
