<svg xmlns="http://www.w3.org/2000/svg" width="74.506" height="82.929" viewBox="0 0 74.506 82.929">
    <defs>
        <style>
            .prefix__cls-1{fill:#fff}
        </style>
    </defs>
    <g id="prefix__Group_328" data-name="Group 328" transform="translate(-1608.797 -4222.989)">
        <g id="prefix__Group_145" data-name="Group 145" transform="translate(1652.529 4236.433)">
            <g id="prefix__Group_144" data-name="Group 144">
                <path id="prefix__Path_272" d="M297.62 83a1.62 1.62 0 1 0 1.62 1.62 1.62 1.62 0 0 0-1.62-1.62z" class="prefix__cls-1" data-name="Path 272" transform="translate(-296 -83)"/>
            </g>
        </g>
        <g id="prefix__Group_147" data-name="Group 147" transform="translate(1636.332 4236.433)">
            <g id="prefix__Group_146" data-name="Group 146">
                <path id="prefix__Path_273" d="M197.62 83a1.62 1.62 0 1 0 1.62 1.62 1.62 1.62 0 0 0-1.62-1.62z" class="prefix__cls-1" data-name="Path 273" transform="translate(-196 -83)"/>
            </g>
        </g>
        <g id="prefix__Group_149" data-name="Group 149" transform="translate(1608.797 4222.989)">
            <g id="prefix__Group_148" data-name="Group 148">
                <path id="prefix__Path_274" d="M98.42 48.41a12.953 12.953 0 0 0 2.086-6.946 11.25 11.25 0 0 0-4.1-8.7 10.949 10.949 0 0 0 .864-4.255 12.073 12.073 0 0 0-6.551-10.679 9.708 9.708 0 0 0-7.373-10.594A11.669 11.669 0 0 0 72.971 0a11.383 11.383 0 0 0-9.718 5.834A11.383 11.383 0 0 0 53.535 0 11.668 11.668 0 0 0 43.16 7.236a9.707 9.707 0 0 0-7.373 10.594 12.073 12.073 0 0 0-6.548 10.677 10.949 10.949 0 0 0 .864 4.255 11.25 11.25 0 0 0-4.1 8.7 12.952 12.952 0 0 0 2.086 6.945 11.182 11.182 0 0 0 1.3 14.518c-1.112 6.72 4.248 13.522 11.192 13.522h.148a12.769 12.769 0 0 0 22.528-.564 12.769 12.769 0 0 0 22.528.564h.148c6.146 0 11.338-5.415 11.338-11.824a10.369 10.369 0 0 0-.146-1.7 11.182 11.182 0 0 0 1.3-14.518zM61.633 24.519a6.437 6.437 0 0 0-3.239-.872 1.62 1.62 0 1 0 0 3.239 3.243 3.243 0 0 1 3.239 3.239v30.8a12.928 12.928 0 0 0-9.718-4.4 1.62 1.62 0 0 0 0 3.239 9.729 9.729 0 0 1 9.718 9.718c0 5.531-4.45 10.2-9.718 10.2a9.745 9.745 0 0 1-8.795-5.65 1.62 1.62 0 0 0-1.652-.927c-.115.013-.228.028-.342.044-4.61.63-9.8-4.589-8.4-10.429a1.619 1.619 0 0 0-.539-1.624 8.063 8.063 0 0 1-2.952-6.2 7.97 7.97 0 0 1 1.189-4.168 10.928 10.928 0 0 0 6.91 2.548 1.62 1.62 0 0 0 0-3.239c-4.4 0-8.1-4.012-8.1-8.584a8.053 8.053 0 0 1 3.782-6.826 1.62 1.62 0 0 0 .542-2.167 7.97 7.97 0 0 1-1.085-3.965c0-4.372 3.564-8.584 8.1-8.584 4.314 0 8.1 4.012 8.1 8.584a1.62 1.62 0 1 0 3.239 0c0-6.409-5.192-11.824-11.338-11.824a10.5 10.5 0 0 0-1.616.127v-.127A6.48 6.48 0 0 1 50.019 12.1a1.62 1.62 0 0 0 2.289-2.29 9.653 9.653 0 0 0-5.372-2.729 8.183 8.183 0 0 1 6.6-3.841c4.314 0 8.1 4.011 8.1 8.584zm27.535 28.769a10.932 10.932 0 0 0 6.91-2.548 7.97 7.97 0 0 1 1.188 4.167 8.064 8.064 0 0 1-2.952 6.2 1.619 1.619 0 0 0-.539 1.624 7.992 7.992 0 0 1 .252 1.9c0 5.028-4.547 9.091-8.647 8.53-.114-.016-.228-.031-.342-.044a1.619 1.619 0 0 0-1.652.927 9.746 9.746 0 0 1-8.795 5.65c-5.268 0-9.718-4.673-9.718-10.2a9.729 9.729 0 0 1 9.718-9.718 1.62 1.62 0 0 0 0-3.239 12.928 12.928 0 0 0-9.718 4.4v-30.8a3.243 3.243 0 0 1 3.239-3.239 1.62 1.62 0 0 0 0-3.239 6.437 6.437 0 0 0-3.239.872v-12.7c0-4.573 3.784-8.584 8.1-8.584a8.183 8.183 0 0 1 6.6 3.841A9.653 9.653 0 0 0 74.2 9.81a1.62 1.62 0 1 0 2.287 2.29 6.48 6.48 0 0 1 11.062 4.581v.127a10.5 10.5 0 0 0-1.616-.127c-6.146 0-11.338 5.415-11.338 11.824a1.62 1.62 0 1 0 3.239 0c0-4.573 3.784-8.584 8.1-8.584 4.532 0 8.1 4.211 8.1 8.584a7.97 7.97 0 0 1-1.085 3.965 1.62 1.62 0 0 0 .542 2.167 8.053 8.053 0 0 1 3.782 6.826c0 4.589-3.716 8.584-8.1 8.584a1.62 1.62 0 0 0 0 3.239z" class="prefix__cls-1" data-name="Path 274" transform="translate(-26)"/>
            </g>
        </g>
        <g id="prefix__Group_151" data-name="Group 151" transform="translate(1621.755 4249.876)">
            <g id="prefix__Group_150" data-name="Group 150">
                <path id="prefix__Path_275" d="M125.024 173.783a1.62 1.62 0 0 0-2.287-.127 8.113 8.113 0 0 1-13.5-6.036 1.62 1.62 0 1 0-3.239 0 11.355 11.355 0 0 0 9.491 11.185 4.868 4.868 0 0 1-4.632 3.392 1.62 1.62 0 1 0 0 3.239 8.111 8.111 0 0 0 7.953-6.576 11.319 11.319 0 0 0 6.084-2.79 1.62 1.62 0 0 0 .13-2.287z" class="prefix__cls-1" data-name="Path 275" transform="translate(-106 -166)"/>
            </g>
        </g>
        <g id="prefix__Group_153" data-name="Group 153" transform="translate(1621.755 4285.996)">
            <g id="prefix__Group_152" data-name="Group 152">
                <path id="prefix__Path_276" d="M107.62 389a1.62 1.62 0 1 0 0 3.239c4.314 0 8.1 4.011 8.1 8.584a1.62 1.62 0 1 0 3.239 0c-.001-6.408-5.194-11.823-11.339-11.823z" class="prefix__cls-1" data-name="Path 276" transform="translate(-106 -389)"/>
            </g>
        </g>
        <g id="prefix__Group_155" data-name="Group 155" transform="translate(1623.439 4273.038)">
            <g id="prefix__Group_154" data-name="Group 154">
                <path id="prefix__Path_277" d="M129.291 309a14.547 14.547 0 0 0-12.682 7.387 1.62 1.62 0 1 0 2.818 1.6 11.313 11.313 0 0 1 9.864-5.745 1.62 1.62 0 1 0 0-3.239z" class="prefix__cls-1" data-name="Path 277" transform="translate(-116.398 -309)"/>
            </g>
        </g>
        <g id="prefix__Group_157" data-name="Group 157" transform="translate(1650.909 4249.876)">
            <g id="prefix__Group_156" data-name="Group 156">
                <path id="prefix__Path_278" d="M300.577 182.2a4.868 4.868 0 0 1-4.632-3.392 11.355 11.355 0 0 0 9.491-11.185 1.62 1.62 0 0 0-3.239 0 8.1 8.1 0 0 1-13.5 6.036 1.62 1.62 0 1 0-2.16 2.414 11.319 11.319 0 0 0 6.084 2.79 8.111 8.111 0 0 0 7.953 6.576 1.62 1.62 0 0 0 0-3.239z" class="prefix__cls-1" data-name="Path 278" transform="translate(-286 -166)"/>
            </g>
        </g>
        <g id="prefix__Group_159" data-name="Group 159" transform="translate(1657.388 4285.996)">
            <g id="prefix__Group_158" data-name="Group 158">
                <path id="prefix__Path_279" d="M337.338 389c-6.146 0-11.338 5.415-11.338 11.824a1.62 1.62 0 1 0 3.239 0c0-4.573 3.784-8.584 8.1-8.584a1.62 1.62 0 0 0 0-3.239z" class="prefix__cls-1" data-name="Path 279" transform="translate(-326 -389)"/>
            </g>
        </g>
        <g id="prefix__Group_161" data-name="Group 161" transform="translate(1654.149 4273.038)">
            <g id="prefix__Group_160" data-name="Group 160">
                <path id="prefix__Path_280" d="M320.3 316.387A14.545 14.545 0 0 0 307.62 309a1.62 1.62 0 1 0 0 3.239 11.315 11.315 0 0 1 9.864 5.745 1.62 1.62 0 0 0 2.818-1.6z" class="prefix__cls-1" data-name="Path 280" transform="translate(-306 -309)"/>
            </g>
        </g>
    </g>
</svg>
