<svg xmlns="http://www.w3.org/2000/svg" width="79.124" height="79.123" viewBox="0 0 79.124 79.123">
    <defs>
        <style>
            .prefix__cls-1{fill:#fff}
        </style>
    </defs>
    <g id="prefix__Group_339" data-name="Group 339" transform="translate(-234.685 -4217.109)">
        <g id="prefix__Group_174" data-name="Group 174" transform="translate(250.231 4243.571)">
            <g id="prefix__Group_173" data-name="Group 173">
                <path id="prefix__Path_293" d="M103.414 171.884a1.587 1.587 0 1 0 0 2.244 1.588 1.588 0 0 0 0-2.244z" class="prefix__cls-1" data-name="Path 293" transform="translate(-100.704 -171.42)"/>
            </g>
        </g>
        <g id="prefix__Group_176" data-name="Group 176" transform="translate(234.685 4277.182)">
            <g id="prefix__Group_175" data-name="Group 175">
                <path id="prefix__Path_294" d="M40.191 400.833a5.557 5.557 0 0 0-4.477-8.846H8.73a5.552 5.552 0 0 0-4.474 8.844A7.943 7.943 0 0 0 0 407.86v1.587a1.587 1.587 0 0 0 1.587 1.587h41.269a1.587 1.587 0 0 0 1.587-1.587v-1.587a7.943 7.943 0 0 0-4.252-7.027zm-33.145-4.975a2.365 2.365 0 0 1 1.684-.7h26.984a2.381 2.381 0 1 1 0 4.762H8.73a2.381 2.381 0 0 1-1.684-4.065zm-3.872 12a4.767 4.767 0 0 1 4.762-4.758h28.571a4.767 4.767 0 0 1 4.762 4.762z" class="prefix__cls-1" data-name="Path 294" transform="translate(0 -391.987)"/>
            </g>
        </g>
        <g id="prefix__Group_178" data-name="Group 178" transform="translate(234.689 4217.109)">
            <g id="prefix__Group_177" data-name="Group 177">
                <path id="prefix__Path_295" d="M77.7 64.926a9.731 9.731 0 0 0-1.861-2.138l-7.221-6.3a1.534 1.534 0 0 0-.615-.536l-4.367-3.809-20.209-17.629a4.628 4.628 0 0 0-1.357-7.381l1.87-1.87a6.185 6.185 0 0 0 5.967-1.6 6.18 6.18 0 0 0 0-8.742L36.795 1.812A6.179 6.179 0 0 0 26.456 7.78L7.8 26.436a6.22 6.22 0 0 0-1.6-.209 6.181 6.181 0 0 0-4.37 10.552l13.111 13.112a6.179 6.179 0 0 0 10.34-5.967l1.866-1.866a4.637 4.637 0 0 0 7.383 1.355l21.528 24.733a1.553 1.553 0 0 0 .21.262c.028.028.057.053.086.078l6.415 7.371c.159.188.33.373.507.55a9.192 9.192 0 0 0 6.532 2.717 9.486 9.486 0 0 0 1.3-.09 9.351 9.351 0 0 0 6.9-4.776 9.144 9.144 0 0 0-.308-9.332zM30.238 4a3.09 3.09 0 0 1 4.372 0l13.112 13.11a3.09 3.09 0 0 1-4.37 4.371L30.239 8.368A3.093 3.093 0 0 1 30.238 4zM21.5 47.705a3.1 3.1 0 0 1-4.371 0L4.014 34.593a3.09 3.09 0 0 1 4.369-4.372L21.5 43.335a3.093 3.093 0 0 1 0 4.37zM28 36.829l-4.317 4.321-13.114-13.114 17.484-17.483 13.113 13.113L36.837 28l-.043.041-8.737 8.737zm5.518 3.224l-.009.009-1.084 1.088a1.546 1.546 0 0 1-2.2-2.166L39 30.206a1.546 1.546 0 0 1 2.622 1.11 1.531 1.531 0 0 1-.453 1.092l-1.085 1.082-.022.022zm3.2 1.171l4.517-4.517 19.123 16.68-6.978 6.978zM55.417 62.7l7.283-7.277 2.335 2.036-7.579 7.579zm19.894 10.048a6.286 6.286 0 0 1-4.626 3.225 6.14 6.14 0 0 1-5.224-1.751c-.119-.119-.233-.242-.339-.368l-.015-.017-5.622-6.46 7.88-7.88 6.452 5.628.015.013a6.653 6.653 0 0 1 1.275 1.462 6.1 6.1 0 0 1 .204 6.148z" class="prefix__cls-1" data-name="Path 295" transform="translate(-.021 -.001)"/>
            </g>
        </g>
        <g id="prefix__Group_180" data-name="Group 180" transform="translate(254.543 4232.613)">
            <g id="prefix__Group_179" data-name="Group 179">
                <path id="prefix__Path_296" d="M138.43 101.172a1.587 1.587 0 0 0-2.245 0l-6.735 6.735a1.587 1.587 0 0 0 2.245 2.245l6.735-6.735a1.587 1.587 0 0 0 0-2.245z" class="prefix__cls-1" data-name="Path 296" transform="translate(-128.985 -100.707)"/>
            </g>
        </g>
    </g>
</svg>
