<svg xmlns="http://www.w3.org/2000/svg" width="71.953" height="76.655" viewBox="0 0 71.953 76.655">
    <defs>
        <style>
            .prefix__cls-1{fill:#fff}
        </style>
    </defs>
    <g id="prefix__Group_338" data-name="Group 338" transform="translate(-584.587 -4223.263)">
        <g id="prefix__Group_168" data-name="Group 168" transform="translate(599.55 4242.118)">
            <g id="prefix__Group_167" data-name="Group 167">
                <path id="prefix__Path_290" d="M117.211 125.994a1.515 1.515 0 1 0 1.515 1.515 1.515 1.515 0 0 0-1.515-1.515z" class="prefix__cls-1" data-name="Path 290" transform="translate(-115.696 -125.994)"/>
            </g>
        </g>
        <g id="prefix__Group_170" data-name="Group 170" transform="translate(601.004 4264.018)">
            <g id="prefix__Group_169" data-name="Group 169">
                <path id="prefix__Path_291" d="M139.327 279.044h-4.544V274.5a1.515 1.515 0 1 0-3.029 0v4.544h-4.544a1.515 1.515 0 1 0 0 3.029h4.544v4.544a1.515 1.515 0 1 0 3.029 0v-4.544h4.544a1.515 1.515 0 1 0 0-3.029z" class="prefix__cls-1" data-name="Path 291" transform="translate(-125.696 -272.986)"/>
            </g>
        </g>
        <g id="prefix__Group_172" data-name="Group 172" transform="translate(584.587 4223.263)">
            <g id="prefix__Group_171" data-name="Group 171">
                <path id="prefix__Path_292" d="M86.049 48.206a11.97 11.97 0 0 0-16.36-4.384l-6.081 3.511v-13a7.539 7.539 0 0 0-1.5-4.491l-7.485-9.98v-4.25a4.5 4.5 0 0 0 2.994-4.234V4.491A4.5 4.5 0 0 0 53.128 0H26.181a4.5 4.5 0 0 0-4.491 4.491v6.887a4.5 4.5 0 0 0 2.994 4.234v4.25l-7.484 9.98a7.538 7.538 0 0 0-1.5 4.49v28.995a7.494 7.494 0 0 0 7.485 7.485h24.06a11.965 11.965 0 0 0 16.269 4.234l18.151-10.48a11.986 11.986 0 0 0 4.384-16.36zM24.684 4.491a1.5 1.5 0 0 1 1.5-1.5h26.944a1.5 1.5 0 0 1 1.5 1.5v6.887a1.5 1.5 0 0 1-1.5 1.5H26.181a1.5 1.5 0 0 1-1.5-1.5V4.491zm-5.09 27.147l7.785-10.379a1.5 1.5 0 0 0 .3-.9v-4.49h23.952v2.994H38.157a1.5 1.5 0 0 0 0 2.994H52.38l7.335 9.78a4.53 4.53 0 0 1 .867 2.2H18.727a4.528 4.528 0 0 1 .867-2.199zm3.593 36.18a4.5 4.5 0 0 1-4.487-4.491v-1.512h27.2a12 12 0 0 0 .072 6H23.187zm23.883-8.983H18.7V36.828h41.914v12.234L51.538 54.3a11.888 11.888 0 0 0-4.469 4.536zm14.948 13.618A8.982 8.982 0 1 1 53.035 56.9l8.127-4.7 8.983 15.558zm18.151-10.48l-7.431 4.291-8.983-15.558 7.432-4.29a8.982 8.982 0 1 1 8.983 15.558z" class="prefix__cls-1" data-name="Path 292" transform="translate(-15.701)"/>
            </g>
        </g>
    </g>
</svg>
