<svg xmlns="http://www.w3.org/2000/svg" id="prefix__Group_340" width="72.581" height="84.741" data-name="Group 340" viewBox="0 0 72.581 84.741">
    <defs>
        <style>
            .prefix__cls-1{fill:#fff}
        </style>
    </defs>
    <g id="prefix__Group_164" data-name="Group 164" transform="translate(32.874 3.149)">
        <g id="prefix__Group_163" data-name="Group 163">
            <path id="prefix__Path_288" d="M240.953 21.205h-.942v-.942a1.237 1.237 0 1 0-2.475 0v.942h-.942a1.237 1.237 0 0 0 0 2.475h.942v.942a1.237 1.237 0 1 0 2.475 0v-.942h.942a1.237 1.237 0 1 0 0-2.475z" class="prefix__cls-1" data-name="Path 288" transform="translate(-235.357 -19.026)"/>
        </g>
    </g>
    <g id="prefix__Group_166" data-name="Group 166">
        <g id="prefix__Group_165" data-name="Group 165">
            <path id="prefix__Path_289" d="M109.264 80.508l-3.616-21.171a6.066 6.066 0 0 0-4.252-4.814l-16.233-4.9a2.7 2.7 0 0 0-2.076.215 3.13 3.13 0 0 1-1-2.206v-4.05l.126-.108.2-.172H84a7.907 7.907 0 0 0 7.893-8.402l-.441-6.962v-.1a3.731 3.731 0 0 0-.042-.559l-.494-7.8a1.237 1.237 0 1 0-2.47.156l.292 4.613a3.719 3.719 0 0 0-1.015-.142h-.069a2.238 2.238 0 0 0-1.676-1c-12.845-1.156-16.543-4.992-19.243-7.793-.561-.582-1.482-.627-2.736-.132a9.565 9.565 0 0 0-5.972 8.594v.34a3.712 3.712 0 0 0-.715.129l.382-6.029a10.4 10.4 0 0 1 4.394-7.885l.094.245a4.247 4.247 0 0 0 3.944 2.714h14.123a4.248 4.248 0 0 0 3.944-2.714l.022-.057a10.433 10.433 0 0 1 3.141 3.841 1.237 1.237 0 0 0 2.232-1.069 12.9 12.9 0 0 0-4.46-5.16l.853-2.23a3.077 3.077 0 0 0-2.261-4.115L76.618.346a17.137 17.137 0 0 0-6.861 0l-7.1 1.442A3.077 3.077 0 0 0 60.394 5.9l.787 2.056a12.852 12.852 0 0 0-5.957 10.1l-.586 9.263a3.72 3.72 0 0 0-.039.509v.1l-.44 6.972a7.907 7.907 0 0 0 7.891 8.4h1.59l.2.172.126.108v4.052a3.13 3.13 0 0 1-1 2.206 2.7 2.7 0 0 0-2.076-.215l-16.234 4.9a6.067 6.067 0 0 0-4.256 4.813l-1.358 7.953a1.237 1.237 0 0 0 2.439.417l1.358-7.953a3.606 3.606 0 0 1 2.527-2.861l16.234-4.9a.228.228 0 0 1 .269.115L69.62 67.42a3.809 3.809 0 0 0 6.8 0l7.751-15.313a.227.227 0 0 1 .27-.115l16.234 4.9a3.605 3.605 0 0 1 2.527 2.861l3.616 21.171a1.148 1.148 0 0 1-1.132 1.341h-7.659L96 70.426a1.237 1.237 0 0 0-2.439.417l1.951 11.423H50.535l1.951-11.423a1.237 1.237 0 0 0-2.439-.417l-2.022 11.839h-7.666a1.148 1.148 0 0 1-1.132-1.341l1.259-7.37a1.237 1.237 0 1 0-2.439-.417l-1.259 7.37a3.623 3.623 0 0 0 3.571 4.233h65.334a3.622 3.622 0 0 0 3.571-4.232zM62.741 4.514a.6.6 0 0 1 .408-.3l7.1-1.442a14.689 14.689 0 0 1 5.875 0l7.1 1.442a.6.6 0 0 1 .442.8l-1.787 4.67a1.759 1.759 0 0 1-1.633 1.123h-14.12a1.759 1.759 0 0 1-1.633-1.123l-1.787-4.67a.6.6 0 0 1 .035-.5zm26.682 30.538a5.436 5.436 0 0 1-4.58 5.711 13.764 13.764 0 0 0 3.073-6.45 3.7 3.7 0 0 0 1.436-.373zM58.09 39.113a5.379 5.379 0 0 1-1.461-4.061l.07-1.112a3.7 3.7 0 0 0 1.436.373 13.764 13.764 0 0 0 3.073 6.45 5.372 5.372 0 0 1-3.118-1.65zM74.375 66l-.155.307a1.414 1.414 0 0 1-.073.124l-.023.039c-.008.012-.034.042-.051.064a1.326 1.326 0 0 1-.2.207c-.015.013-.032.023-.048.035a1.34 1.34 0 0 1-1.995-.468l-5.136-10.155h12.665zm6.236-12.321h-15.17l-.956-1.888a5.586 5.586 0 0 0 1.952-4.155V45.5a11.842 11.842 0 0 0 6.575 1.883h.027a11.843 11.843 0 0 0 6.576-1.883v2.135a5.585 5.585 0 0 0 1.952 4.155zM80.6 41.6c-2.288 1.971-4.052 3.266-7.574 3.308-3.522-.043-5.286-1.338-7.574-3.308-3.038-2.616-4.887-5.81-4.945-8.545a1.237 1.237 0 0 0-1.237-1.211h-.942a1.254 1.254 0 0 1-1.253-1.253V27.83a1.25 1.25 0 0 1 .013-.17c0-.019.006-.038.009-.057a1.254 1.254 0 0 1 1.232-1.026h.938a1.237 1.237 0 0 0 1.233-1.238v-1.534a7.075 7.075 0 0 1 4.768-6.449c3.629 3.7 8.089 7.068 20.3 8.2a1.238 1.238 0 0 0 1.219 1.024h.938a1.255 1.255 0 0 1 1.231 1.02c0 .019.005.038.009.057a1.248 1.248 0 0 1 .013.17v2.76a1.255 1.255 0 0 1-1.253 1.253h-.942a1.237 1.237 0 0 0-1.237 1.211c-.059 2.738-1.908 5.932-4.946 8.549z" class="prefix__cls-1" data-name="Path 289" transform="translate(-36.736)"/>
        </g>
    </g>
</svg>
