<svg xmlns="http://www.w3.org/2000/svg" id="prefix__Group_183" width="79.124" height="79.124" data-name="Group 183" viewBox="0 0 79.124 79.124">
    <defs>
        <style>
            .prefix__cls-1{fill:#fff}
        </style>
    </defs>
    <path id="prefix__Path_281" d="M38.758 14.033a1.76 1.76 0 0 0 1.758 1.758h1.758a1.76 1.76 0 0 0 1.758-1.758 1.76 1.76 0 0 0 1.758-1.758v-1.758a1.76 1.76 0 0 0-1.758-1.758A1.76 1.76 0 0 0 42.275 7h-1.758a1.76 1.76 0 0 0-1.758 1.758A1.76 1.76 0 0 0 37 10.517v1.758a1.76 1.76 0 0 0 1.758 1.758zm0-3.517h1.758V8.758h1.758v1.758h1.758v1.756h-1.757v1.758h-1.758v-1.755h-1.759z" class="prefix__cls-1" data-name="Path 281" transform="translate(11.691 -1.725)"/>
    <path id="prefix__Path_282" d="M73.743 6.1H64.68A6.393 6.393 0 0 0 58.428 1H48.219a6.393 6.393 0 0 0-6.252 5.1H4.829A3.833 3.833 0 0 0 1 9.933v10.21a6.393 6.393 0 0 0 5.1 6.252v33.467a6.335 6.335 0 0 0-2.552 11.3V76.3a3.833 3.833 0 0 0 3.829 3.829h65.089a2.555 2.555 0 0 0 2.552-2.552V26.524h1.276a3.833 3.833 0 0 0 3.83-3.824V12.486A6.388 6.388 0 0 0 73.743 6.1zm3.594 5.1H64.809V8.657h8.933a3.823 3.823 0 0 1 3.594 2.552zm.235 2.552v2.552H64.809v-2.542zm-29.353-10.2h10.209a3.833 3.833 0 0 1 3.829 3.829v16.59H44.39V7.381a3.833 3.833 0 0 1 3.829-3.829zm-6.381 12.762H3.552v-2.552h38.286zM4.829 8.657h37.009v2.552H3.552V9.933a1.278 1.278 0 0 1 1.277-1.276zM3.552 20.143v-1.276h38.286v5.1H7.381a3.833 3.833 0 0 1-3.829-3.824zm3.774 42.113l1.173.069.314-.9a2.543 2.543 0 1 1 4.76 1.783l-.533 1.331 1.385.375a2.543 2.543 0 0 1-.662 5H7.381a3.829 3.829 0 0 1-.055-7.658zm8.988 10.211h5.1v5.1h-5.34a3.786 3.786 0 0 0 .235-1.276zm0-10.209h5.1v7.657h-3.233a5.083 5.083 0 0 0-1.913-6.983 4.954 4.954 0 0 0 .046-.675zM31.628 49.5h-7.657v-7.662h7.657zm0 2.552V59.7h-7.657v-7.653zm0 10.209v7.657h-7.657v-7.661zm-7.657 10.205h7.657v5.1h-7.657zm7.657-33.181h-7.657v-7.657h7.657zm-10.209 0h-7.657v-7.657h7.657zm-7.657 2.552h7.657V49.5h-7.657zm0 10.209h7.657V59.7H15.6a5.112 5.112 0 0 0-1.843-1.843zM7.381 77.571A1.278 1.278 0 0 1 6.1 76.295v-3.957a6.375 6.375 0 0 0 1.276.129h6.381v3.829a1.278 1.278 0 0 1-1.276 1.276zM59.7 59.7v-3.824a3.833 3.833 0 0 0-3.829-3.829H54.6V36.733h10.209v40.838H54.6V54.6h1.276a1.278 1.278 0 0 1 1.276 1.276V59.7zM39.286 34.181v-2.553h28.076v2.552zm12.762 2.552v15.314h-1.277a3.833 3.833 0 0 0-3.829 3.829V59.7H49.5v-3.824a1.278 1.278 0 0 1 1.271-1.276h1.276v22.971H41.838V36.733zm20.418 40.838h-5.1V36.733a2.555 2.555 0 0 0 2.552-2.552v-2.553a2.555 2.555 0 0 0-2.552-2.552h-28.08a2.555 2.555 0 0 0-2.552 2.552v2.552a2.555 2.555 0 0 0 2.552 2.552v40.839h-5.1v-48.5H11.209v28.081a5.061 5.061 0 0 0-2.552.693V26.524h63.809zm3.829-53.6H64.809v-5.1h12.762V22.7a1.278 1.278 0 0 1-1.276 1.271z" class="prefix__cls-1" data-name="Path 282" transform="translate(-1 -1)"/>
</svg>
