<svg xmlns="http://www.w3.org/2000/svg" id="prefix___050---Human-Brain" width="73.793" height="81.774" data-name="050---Human-Brain" viewBox="0 0 73.793 81.774">
    <defs>
        <style>
            .prefix__cls-1{fill:#fff}
        </style>
    </defs>
    <path id="prefix__Shape" d="M74.654 32.443a40.844 40.844 0 0 0-1.427-11.574 22.589 22.589 0 0 0-8.149-11.723C57.384 3.117 50.192.619 41.785 1.045A91.471 91.471 0 0 0 28.6 2.931c-6.149 1.236-10.616 3.4-13.657 6.61a25.873 25.873 0 0 0-5.469 8.908 36.021 36.021 0 0 0-1.238 4.46l-.109.472a17.331 17.331 0 0 1-1.157 3.08c-.281.63-.563 1.259-.807 1.908a4.6 4.6 0 0 0-.363 2.292A5.206 5.206 0 0 0 7.785 33.7c.669.613 1.108 1.043 1.112 1.435a2.36 2.36 0 0 1-.239.581 52.674 52.674 0 0 1-5.968 9.706c-.979 1.2-2 2.59-1.8 4.006a4.236 4.236 0 0 0 1.975 2.544 10.135 10.135 0 0 0 1.422.818c.587.3 1.573.8 1.636 1.163a2.329 2.329 0 0 1-.149 1.363c-.2.425-.409.793-.593 1.114-.5.885-1.339 2.368-.078 3.428.294.259.8.656 1.259 1.009a3.44 3.44 0 0 0-.439 1.972 1.96 1.96 0 0 0 .8 1.326 10.322 10.322 0 0 0 .954.589c.8.457 1.114.671 1.227 1.09a3.8 3.8 0 0 1-.147 1.653c-.079.358-.155.716-.2 1.073a7.926 7.926 0 0 0 .457 3.663 5.043 5.043 0 0 0 5.939 3.6 111.2 111.2 0 0 0 11.5-3.439c3.064 1.81 5 7.286 5.505 9.34a1.363 1.363 0 0 0 1.324 1.039l34.218-.094a1.363 1.363 0 0 0 1.3-1.762 10.512 10.512 0 0 0-1.389-2.608 12.859 12.859 0 0 1-.872-1.446 26.778 26.778 0 0 1-1.54-3.9 45.374 45.374 0 0 1-1.607-8.063 23.02 23.02 0 0 1 1.783-11.965 30.6 30.6 0 0 1 3.7-5.842c.818-1.108 1.672-2.253 2.439-3.462a20.957 20.957 0 0 0 3.34-11.188zm-7.966 13.04a33.129 33.129 0 0 0-4.01 6.376 25.749 25.749 0 0 0-1.99 13.383 47.8 47.8 0 0 0 1.7 8.538 29.715 29.715 0 0 0 1.69 4.283 15.1 15.1 0 0 0 1.051 1.76l.1.149-30.908.087a21.759 21.759 0 0 0-4.8-8.707c.348-.121.682-.234.983-.343 1.033-.361 1.814-.635 2.2-.758 5.844-1.835 8.766-4.49 8.687-7.894a1.416 1.416 0 0 0-1.4-1.332 1.363 1.363 0 0 0-1.33 1.4c.033 1.4-1.116 3.451-6.78 5.229-.409.128-1.215.409-2.287.786-.972.341-2.165.758-3.469 1.2a113.4 113.4 0 0 1-11.718 3.536 2.418 2.418 0 0 1-2.813-1.829 5.29 5.29 0 0 1-.329-2.4c.037-.282.1-.564.164-.848a6.047 6.047 0 0 0 .128-2.913 4.5 4.5 0 0 0-2.514-2.789l-.292-.168a5.062 5.062 0 0 1 .522-.844 1.363 1.363 0 0 0-.262-1.936c-.327-.243-1.107-.826-1.666-1.274.07-.127.147-.273.219-.394.21-.369.448-.8.682-1.283a5.043 5.043 0 0 0 .367-3.048C8.3 51.774 6.7 50.959 5.531 50.364a7.87 7.87 0 0 1-1.131-.658 7.1 7.1 0 0 1-.8-.649c0-.2.218-.7 1.266-1.983a55.027 55.027 0 0 0 6.228-10.125 3.932 3.932 0 0 0 .534-1.847 4.746 4.746 0 0 0-2-3.408c-.545-.5-1.071-.981-1.13-1.4a2.366 2.366 0 0 1 .218-.954c.224-.592.484-1.172.744-1.753a19.726 19.726 0 0 0 1.324-3.577l.11-.476a33.386 33.386 0 0 1 1.14-4.129 23.157 23.157 0 0 1 4.889-7.99c2.64-2.781 6.637-4.689 12.215-5.811a88.627 88.627 0 0 1 12.786-1.835C49.636 3.36 56.256 5.7 63.393 11.3A19.66 19.66 0 0 1 70.6 21.614 38.073 38.073 0 0 1 71.928 32.4a18.3 18.3 0 0 1-2.916 9.786c-.714 1.12-1.535 2.226-2.328 3.295z" class="prefix__cls-1" transform="translate(-.869 -.999)"/>
    <path id="prefix__Shape-2" d="M22.089 18.726h1.363a1.363 1.363 0 1 0 0-2.726h-1.363A4.089 4.089 0 0 0 18 20.089v1.363a4.089 4.089 0 0 0 4.089 4.089h1.363a1.363 1.363 0 1 0 0-2.726h-1.363a1.363 1.363 0 0 1-1.363-1.363v-1.363a1.363 1.363 0 0 1 1.363-1.363z" class="prefix__cls-1" data-name="Shape" transform="translate(5.351 4.448)"/>
    <path id="prefix__Shape-3" d="M29.452 15a1.363 1.363 0 0 0-1.363 1.363v2.726a1.363 1.363 0 0 1-1.363 1.363h-1.363a1.363 1.363 0 1 0 0 2.726h1.363a4.089 4.089 0 0 0 4.089-4.089v-2.726A1.363 1.363 0 0 0 29.452 15z" class="prefix__cls-1" data-name="Shape" transform="translate(7.529 4.085)"/>
    <path id="prefix__Shape-4" d="M34.9 16.452v-1.363A4.089 4.089 0 0 0 30.815 11h-2.726A4.089 4.089 0 0 0 24 15.089v1.363a1.363 1.363 0 0 0 2.726 0v-1.363a1.363 1.363 0 0 1 1.363-1.363h2.726a1.363 1.363 0 0 1 1.363 1.363v1.363a1.363 1.363 0 1 0 2.726 0z" class="prefix__cls-1" data-name="Shape" transform="translate(7.529 2.632)"/>
    <path id="prefix__Shape-5" d="M36.452 23.089h-1.363a1.363 1.363 0 0 1-1.363-1.363v-1.363a1.363 1.363 0 0 0-2.726 0v1.363a4.089 4.089 0 0 0 4.089 4.089h1.363a1.363 1.363 0 1 0 0-2.726z" class="prefix__cls-1" data-name="Shape" transform="translate(10.071 5.537)"/>
    <path id="prefix__Shape-6" d="M41.815 20.815a1.363 1.363 0 0 0-1.363-1.363h-1.363a1.363 1.363 0 0 1 0-2.726h1.363a1.363 1.363 0 0 0 0-2.726h-1.363a4.089 4.089 0 1 0 0 8.178h1.363a1.363 1.363 0 0 0 1.363-1.363z" class="prefix__cls-1" data-name="Shape" transform="translate(11.523 3.721)"/>
    <path id="prefix__Shape-7" d="M44.452 19a1.363 1.363 0 0 0-1.363 1.363v2.726a1.363 1.363 0 0 1-1.363 1.363h-1.363a1.363 1.363 0 1 0 0 2.726h1.363a4.089 4.089 0 0 0 4.089-4.089v-2.726A1.363 1.363 0 0 0 44.452 19z" class="prefix__cls-1" data-name="Shape" transform="translate(12.976 5.537)"/>
    <path id="prefix__Shape-8" d="M65.883 28.172c0-.022-.011-.04-.012-.061a33.533 33.533 0 0 0-1.156-7.2 17.015 17.015 0 0 0-6.261-8.915C52.289 7.158 46.7 5 40.324 5c-.5 0-1.009.014-1.528.038-.465.025-.93.078-1.394.116-.031 0-.057-.018-.089-.018a1.233 1.233 0 0 0-.211.042 95.8 95.8 0 0 0-10.694 1.646 31.85 31.85 0 0 0-4.558 1.255c-.031.012-.063.019-.093.033a15.764 15.764 0 0 0-6.117 3.725 20.242 20.242 0 0 0-3.928 6.149 1.35 1.35 0 0 0-.1.241c-.091.224-.2.435-.281.662-.418 1.135-1.077 3.962-1.16 4.318-.309 1.526-1.071 6.754 2.023 10.033 1.963 2.08 4.964 2.849 8.906 2.29l1.835-.262c8.746-1.258 13.135-1.889 16.912 1.8.727.71 1.471 1.435 2.245 2.14-.857 2.7-1.97 8.451 2.59 11.859 4.9 3.68 4.9 4.677 4.9 7.088a1.363 1.363 0 0 0 1.972 1.227c.357-.185 3.48-1.925 3.48-8.042 0-3.346 2.494-6.239 4.958-8.632l.041-.037a13.182 13.182 0 0 0 3.408-3.408 15.758 15.758 0 0 0 2.09-5.083 1.349 1.349 0 0 0 .123-.56 16.246 16.246 0 0 0 .286-2.711c.014-.915-.007-1.821-.056-2.717a.158.158 0 0 0-.001-.02zM52.307 51.345a10.421 10.421 0 0 1-.48 3.345c-.637-1.593-2.111-3.244-5.518-5.8-2.708-2.028-2.518-5.4-1.933-7.77a14.622 14.622 0 0 0 9 3.218 15.66 15.66 0 0 0 1.589-.093 11.859 11.859 0 0 0-2.658 7.1zm8.833-13.53a8.86 8.86 0 0 1-3.883 3.228 11.972 11.972 0 0 1-7.675-.114v-1.852a1.363 1.363 0 0 1 1.363-1.363h4.089a1.363 1.363 0 1 0 0-2.726h-4.09a4.089 4.089 0 0 0-4.089 4.089v.423a37.014 37.014 0 0 1-5.1-4.375 11.607 11.607 0 0 0-5.8-3.191V30.9a1.363 1.363 0 1 0-2.726 0v.7a60.672 60.672 0 0 0-10.68.969l-1.829.26a13.145 13.145 0 0 1-2.485.128v-.7a1.363 1.363 0 0 0-2.726 0v.065a4.57 4.57 0 0 1-1.332-.954 6.124 6.124 0 0 1-1.438-3.2h1.407a4.089 4.089 0 0 0 4.089-4.089 1.363 1.363 0 0 0-2.726 0 1.363 1.363 0 0 1-1.363 1.363h-1.533a13.235 13.235 0 0 1 .217-1.662c.179-.774.682-2.862 1-3.791h4.4a1.363 1.363 0 1 0 0-2.726h-3.16a16.949 16.949 0 0 1 2.545-3.556 11.342 11.342 0 0 1 3.341-2.307v1.782a4.089 4.089 0 0 0 4.089 4.089 1.363 1.363 0 0 0 0-2.726 1.363 1.363 0 0 1-1.363-1.363V10.33a31.518 31.518 0 0 1 3.272-.83c1.161-.234 2.35-.459 3.544-.673v.264a1.363 1.363 0 0 0 2.726 0v-.72c.908-.136 1.817-.262 2.726-.361v1.08a1.363 1.363 0 1 0 2.726 0V7.783c.086 0 .173-.016.258-.022.842-.035 1.662-.035 2.469 0v5.418a1.363 1.363 0 0 0 1.363 1.363h2.726a1.363 1.363 0 0 0 0-2.726h-1.364V8.057a22.969 22.969 0 0 1 6.833 2.306c0 .031-.018.057-.018.089v4.089a1.363 1.363 0 1 0 2.726 0v-2.6c.894.579 1.8 1.212 2.726 1.925v3.4a1.363 1.363 0 0 1-1.363 1.363 1.363 1.363 0 0 0 0 2.726 4.089 4.089 0 0 0 4.089-4.089v-.934a13.387 13.387 0 0 1 2.97 5.316 29.716 29.716 0 0 1 .932 5.159h-2.538a1.363 1.363 0 1 0 0 2.726h2.7c.01.446.031.889.025 1.339-.007.474-.059.931-.11 1.388h-2.615a1.363 1.363 0 1 0 0 2.726h2a13.331 13.331 0 0 1-1.345 2.829z" class="prefix__cls-1" data-name="Shape" transform="translate(2.395 .454)"/>
</svg>
