<svg xmlns="http://www.w3.org/2000/svg" width="109.513" height="59.746" viewBox="0 0 109.513 59.746">
    <defs>
        <style>
            .prefix__cls-1{fill:#fff}
        </style>
    </defs>
    <g id="prefix__Group_516" data-name="Group 516" transform="translate(-240 -5939)">
        <path id="prefix__Path_312" d="M105.151 46.276a6.117 6.117 0 0 0 2.569-10.187l-2.651-2.651a6.119 6.119 0 0 0 2.572-10.187L92.41 8.02A26.121 26.121 0 0 0 78.363.756a17.173 17.173 0 0 0-15.244 4.622l-3.473 3.473a22.127 22.127 0 0 0-4.89 7.368 22.145 22.145 0 0 0-4.89-7.368l-3.473-3.473C39.6-1.416 30.121-.133 23.513 3.332a1.607 1.607 0 0 0 1.492 2.847C30.6 3.244 38.56 2.09 44.121 7.651l3.472 3.473a18.844 18.844 0 0 1 5.557 13.414v21.737a3.8 3.8 0 1 1-7.6 0l.012-11.14 2.7-2.7a1.607 1.607 0 0 0-2.272-2.275L19.969 56.181a2.9 2.9 0 0 1-4.106-4.1l.009-.011 16.652-16.654a1.607 1.607 0 0 0-2.273-2.273L9.576 53.82a2.9 2.9 0 0 1-4.107-4.107l19.638-19.637a1.607 1.607 0 0 0-2.272-2.276L8.177 42.461l-.007.006a2.9 2.9 0 0 1-4.107-4.1l16-16a1.607 1.607 0 1 0-2.273-2.273l-9.54 9.537a2.9 2.9 0 0 1-4.1-4.107l15.227-15.231c.237-.237.477-.466.713-.681a1.607 1.607 0 1 0-2.163-2.377c-.273.249-.55.512-.822.785L1.872 23.252a6.125 6.125 0 0 0 2.568 10.19L1.791 36.09a6.119 6.119 0 0 0 2.57 10.186L3.2 47.441a6.118 6.118 0 1 0 8.652 8.652l.209-.208a6.116 6.116 0 0 0 10.184 2.57l20.106-20.1-.009 7.923a7.01 7.01 0 0 0 12.418 4.464 7.009 7.009 0 0 0 12.417-4.47l-.008-7.918 12.778 12.778a1.607 1.607 0 0 0 2.273-2.273l-18.7-18.7a1.607 1.607 0 0 0-2.273 2.273l2.7 2.7.01 11.141a3.8 3.8 0 1 1-7.595 0V24.538a18.845 18.845 0 0 1 5.555-13.414l3.473-3.473A13.979 13.979 0 0 1 77.862 3.93a23.172 23.172 0 0 1 12.275 6.362l15.232 15.232a2.9 2.9 0 0 1-4.1 4.111l-9.541-9.542a1.607 1.607 0 0 0-2.273 2.273l16 16a2.9 2.9 0 0 1-4.1 4.1l-.021-.019L86.678 27.8a1.607 1.607 0 0 0-2.278 2.275l19.638 19.638a2.9 2.9 0 1 1-4.1 4.106L79.261 33.143a1.607 1.607 0 0 0-2.273 2.273l16.663 16.663a2.9 2.9 0 0 1-4.111 4.1L86.764 53.4a1.607 1.607 0 0 0-2.273 2.273l2.78 2.78a6.115 6.115 0 0 0 10.185-2.571l.21.21a6.117 6.117 0 1 0 8.651-8.652zm0 0" class="prefix__cls-1" data-name="Path 312" transform="translate(240 5938.499)"/>
        <path id="prefix__Path_313" d="M186.919 278.323a25.919 25.919 0 0 0 19.209-8.542 1.607 1.607 0 0 0-2.386-2.153 22.656 22.656 0 0 1-33.645 0 1.607 1.607 0 0 0-2.386 2.153 25.921 25.921 0 0 0 19.208 8.542zm0 0" class="prefix__cls-1" data-name="Path 313" transform="translate(108.487 5689.429)"/>
        <path id="prefix__Path_314" d="M188.856 317.817a34.278 34.278 0 0 1-45.141 0 1.607 1.607 0 1 0-2.118 2.418 37.493 37.493 0 0 0 49.377 0 1.607 1.607 0 0 0-2.118-2.418zm0 0" class="prefix__cls-1" data-name="Path 314" transform="translate(129.12 5649.871)"/>
    </g>
</svg>
