<svg xmlns="http://www.w3.org/2000/svg" width="82.325" height="82.324" viewBox="0 0 82.325 82.324">
    <defs>
        <style>
            .prefix__cls-1{fill:#fff}
        </style>
    </defs>
    <g id="prefix__Group_357" data-name="Group 357" transform="translate(-287 -6013.987)">
        <path id="prefix__Path_262" d="M14.328 28.9h34.523a1.327 1.327 0 0 0 1.328-1.328V6.328A1.327 1.327 0 0 0 48.851 5H14.328A1.327 1.327 0 0 0 13 6.328v21.245a1.327 1.327 0 0 0 1.328 1.327zm1.328-21.244h31.867v18.589H15.656z" class="prefix__cls-1" data-name="Path 262" transform="translate(289.934 6014.298)"/>
        <path id="prefix__Path_263" d="M24.955 9.862L21.7 18.554l-2.526-2.525-1.878 1.878 3.983 3.983a1.328 1.328 0 0 0 .939.389 1.351 1.351 0 0 0 .281-.029 1.331 1.331 0 0 0 .963-.831l3.659-9.762H43.46V9H26.2a1.33 1.33 0 0 0-1.244.862z" class="prefix__cls-1" data-name="Path 263" transform="translate(291.341 6015.609)"/>
        <path id="prefix__Path_264" d="M32.6 12.293l-1.713 1.717-1.717-1.717-1.878 1.878 2.267 2.267V21.2h2.656v-4.763l2.267-2.267z" class="prefix__cls-1" data-name="Path 264" transform="translate(294.619 6016.689)"/>
        <path id="prefix__Path_265" d="M83.325 40.834A4.5 4.5 0 0 0 82 37.629l-.778-.778a4.642 4.642 0 0 0-6.411 0L59.424 52.235V2.328A1.327 1.327 0 0 0 58.1 1H4.983A3.988 3.988 0 0 0 1 4.983v66.39a3.988 3.988 0 0 0 3.983 3.983h33.7L35.664 81.4a1.328 1.328 0 0 0 1.781 1.782l10.623-5.311-.008-.015a1.3 1.3 0 0 0 .352-.234l2.268-2.268h7.42a1.327 1.327 0 0 0 1.328-1.328v-7.414l11.008 11.012a1.321 1.321 0 0 0 .352.234l-.008.015 10.62 5.31a1.328 1.328 0 0 0 1.785-1.783l-5.311-10.62-.015.008a1.3 1.3 0 0 0-.234-.352L66.613 59.424 82 44.04a4.5 4.5 0 0 0 1.325-3.206zm-26.557 8.745L44.04 36.851a4.642 4.642 0 0 0-6.411 0l-.778.777a4.534 4.534 0 0 0 0 6.412l15.384 15.384-7.967 7.966h-29.99V3.656h42.49zm-18.04-7.417a1.878 1.878 0 0 1 0-2.656l.778-.777a1.877 1.877 0 0 1 2.656 0l3.438 3.433-3.438 3.438zM3.656 4.983a1.329 1.329 0 0 1 1.327-1.327h6.639V67.39H3.656zM4.983 72.7a1.328 1.328 0 0 1-1.328-1.328v-1.326h37.958l-.389.389a1.3 1.3 0 0 0-.234.352l-.015-.008-.961 1.921zm37.543.914l2.706 2.706-5.412 2.707zm4.947 1.192l-3.433-3.432L54.113 61.3l3.434 3.434zm9.295-2.106h-3.433l3.434-3.434zm16.847 3.62l2.706-2.706 2.706 5.412zm-2.241-1.514L44.04 47.473l3.434-3.434 27.334 27.335zM61.3 54.112L71.374 44.04l3.434 3.434-10.073 10.072zm18.818-11.95L76.686 45.6l-3.434-3.434 3.434-3.432a1.921 1.921 0 0 1 2.656 0l.778.777a1.878 1.878 0 0 1 0 2.656z" class="prefix__cls-1" data-name="Path 265" transform="translate(286 6012.987)"/>
        <path id="prefix__Path_266" d="M66.262 6.311h-3.984V2.328A1.327 1.327 0 0 0 60.95 1h-5.311a1.327 1.327 0 0 0-1.328 1.328v3.983h-3.983A1.327 1.327 0 0 0 49 7.639v5.311a1.327 1.327 0 0 0 1.328 1.328h3.983v3.983a1.327 1.327 0 0 0 1.328 1.328h5.311a1.327 1.327 0 0 0 1.328-1.328v-3.983h3.983a1.327 1.327 0 0 0 1.328-1.328V7.639a1.327 1.327 0 0 0-1.327-1.328zm-1.328 5.311H60.95a1.327 1.327 0 0 0-1.328 1.328v3.983h-2.655V12.95a1.327 1.327 0 0 0-1.328-1.328h-3.983V8.967h3.983a1.327 1.327 0 0 0 1.328-1.328V3.656h2.656v3.983a1.327 1.327 0 0 0 1.327 1.328h3.983z" class="prefix__cls-1" data-name="Path 266" transform="translate(301.735 6012.987)"/>
        <path id="prefix__Path_267" d="M66.262 19H50.328A1.327 1.327 0 0 0 49 20.328v5.311a1.327 1.327 0 0 0 1.328 1.328h15.934a1.327 1.327 0 0 0 1.328-1.328v-5.311A1.327 1.327 0 0 0 66.262 19zm-1.328 5.311H51.656v-2.655h13.278z" class="prefix__cls-1" data-name="Path 267" transform="translate(301.735 6018.887)"/>
    </g>
</svg>
