<svg xmlns="http://www.w3.org/2000/svg" width="79.124" height="79.112" viewBox="0 0 79.124 79.112">
    <defs>
        <style>
            .prefix__cls-1{fill:#fff}
        </style>
    </defs>
    <g id="prefix__Group_360" data-name="Group 360" transform="translate(-376 -6052.899)">
        <path id="prefix__Path_258" d="M72.452 32.9a7.655 7.655 0 0 0-7.543 6.4c-.04 0-.073-.023-.112-.023h-2.552c-.023 0-.042.011-.064.013a21.57 21.57 0 0 0-5.442-13.126c.009-.009.02-.01.028-.019l5.1-5.1a1.238 1.238 0 0 0 .263-.4 5.121 5.121 0 1 0-1.675-1.67 1.238 1.238 0 0 0-.4.263l-5.1 5.1c-.009.008-.01.019-.019.028a21.57 21.57 0 0 0-13.121-5.442c0-.022.013-.041.013-.064v-5.1a1.054 1.054 0 0 0-.026-.128 6.379 6.379 0 1 0-2.5 0 1.054 1.054 0 0 0-.026.128v5.1c0 .023.011.042.013.064a21.57 21.57 0 0 0-13.126 5.442c-.009-.009-.01-.02-.019-.028l-11.481-11.48a1.238 1.238 0 0 0-.4-.263A5.121 5.121 0 1 0 12.6 14.27a1.238 1.238 0 0 0 .263.4l11.479 11.48c.008.009.019.01.028.019a21.57 21.57 0 0 0-5.442 13.121c-.022 0-.041-.013-.064-.013h-2.551c-.04 0-.073.019-.112.023a7.655 7.655 0 1 0 0 2.506c.04 0 .073.023.112.023h2.552c.023 0 .042-.011.064-.013A21.562 21.562 0 0 0 24.3 54.864a1.185 1.185 0 0 0 .221.245 21.616 21.616 0 0 0 14.772 7.071c0 .022-.013.041-.013.064v5.1a1.055 1.055 0 0 0 .026.128 6.379 6.379 0 1 0 2.5 0 1.054 1.054 0 0 0 .026-.128v-5.1c0-.023-.011-.042-.013-.064a21.57 21.57 0 0 0 13.126-5.442c.009.009.01.02.019.028l5.1 5.1a1.237 1.237 0 0 0 .4.263 5.121 5.121 0 1 0 1.67-1.675 1.237 1.237 0 0 0-.263-.4l-5.1-5.1c.022-.028.029-.064.048-.094a21.562 21.562 0 0 0 5.365-13.046c.022 0 .041.013.064.013H64.8c.04 0 .073-.019.112-.023a7.655 7.655 0 1 0 7.54-8.904zM64.8 13.76a2.552 2.552 0 1 1-2.552 2.552A2.552 2.552 0 0 1 64.8 13.76zM9.933 12.484a2.552 2.552 0 1 1 2.552-2.552 2.552 2.552 0 0 1-2.552 2.552zM8.657 45.657a5.1 5.1 0 1 1 5.1-5.1 5.1 5.1 0 0 1-5.1 5.1zM64.8 62.243a2.552 2.552 0 1 1-2.552 2.552 2.552 2.552 0 0 1 2.552-2.552zM36.727 7.38a3.828 3.828 0 1 1 3.828 3.828 3.828 3.828 0 0 1-3.828-3.828zm7.655 66.346a3.828 3.828 0 1 1-3.827-3.826 3.828 3.828 0 0 1 3.827 3.826zm-3.827-14.035A19.066 19.066 0 0 1 26.7 53.718a14.065 14.065 0 0 1 10.32-11.923 1.276 1.276 0 0 0 .3-2.373 5.526 5.526 0 0 1-3.141-5.248 6.379 6.379 0 0 1 12.759 0 5.526 5.526 0 0 1-3.141 5.248 1.276 1.276 0 0 0 .3 2.373 14.065 14.065 0 0 1 10.312 11.923 19.066 19.066 0 0 1-13.855 5.974zm15.922-8.537a16.692 16.692 0 0 0-9.331-11.027 8.06 8.06 0 0 0 2.34-5.953 8.931 8.931 0 0 0-17.862 0 8.06 8.06 0 0 0 2.34 5.953 16.692 16.692 0 0 0-9.331 11.027 19.138 19.138 0 1 1 31.844 0zm15.975-5.5a5.1 5.1 0 1 1 5.1-5.1 5.1 5.1 0 0 1-5.1 5.103z" class="prefix__cls-1" data-name="Path 258" transform="translate(375.007 6051.902)"/>
        <path id="prefix__Path_259" d="M12.34 49.266L8.71 52.9a.88.88 0 0 0-.187.282 3.642 3.642 0 1 0 1.191 1.188.88.88 0 0 0 .286-.191l3.63-3.63a.907.907 0 1 0-1.283-1.283zm-5.71 8.808a1.815 1.815 0 1 1 1.815-1.815 1.815 1.815 0 0 1-1.815 1.815z" class="prefix__cls-1" data-name="Path 259" transform="translate(374.821 6070.305)"/>
        <path id="prefix__Path_260" d="M17.081 45.266l-1.815 1.815a.907.907 0 1 0 1.283 1.283l1.815-1.815a.907.907 0 1 0-1.283-1.283z" class="prefix__cls-1" data-name="Path 260" transform="translate(379.227 6065.16)"/>
        <path id="prefix__Path_261" d="M55.907 8.63a.907.907 0 0 0 .641-.266l1.815-1.815a.907.907 0 1 0-1.283-1.283l-1.814 1.815a.907.907 0 0 0 .642 1.549z" class="prefix__cls-1" data-name="Path 261" transform="translate(392.857 6051.531)"/>
    </g>
</svg>
