<svg xmlns="http://www.w3.org/2000/svg" width="79.124" height="79.124" viewBox="0 0 79.124 79.124">
    <defs>
        <style>
            .prefix__cls-1{fill:#fff}
        </style>
    </defs>
    <g id="prefix__Group_363" data-name="Group 363" transform="translate(-263 -6031.987)">
        <g id="prefix__Group_131" data-name="Group 131" transform="translate(263 6031.987)">
            <g id="prefix__Group_130" data-name="Group 130">
                <path id="prefix__Path_268" d="M77.805 0H1.319A1.318 1.318 0 0 0 0 1.318v26.375h2.637V2.637h73.849v29.012H30.331v2.637H77.8a1.318 1.318 0 0 0 1.319-1.318V1.319A1.318 1.318 0 0 0 77.805 0z" class="prefix__cls-1" data-name="Path 268"/>
            </g>
        </g>
        <g id="prefix__Group_133" data-name="Group 133" transform="translate(306.957 6038.141)">
            <g id="prefix__Group_132" data-name="Group 132">
                <path id="prefix__Rectangle_451" d="M0 0H27V3H0z" class="prefix__cls-1" data-name="Rectangle 451" transform="translate(-.248 -.141)"/>
            </g>
        </g>
        <g id="prefix__Group_135" data-name="Group 135" transform="translate(310.474 6046.933)">
            <g id="prefix__Group_134" data-name="Group 134">
                <path id="prefix__Rectangle_452" d="M0 0H26V2H0z" class="prefix__cls-1" data-name="Rectangle 452" transform="translate(.235 .068)"/>
            </g>
        </g>
        <g id="prefix__Group_137" data-name="Group 137" transform="translate(305.199 6053.966)">
            <g id="prefix__Group_136" data-name="Group 136">
                <path id="prefix__Rectangle_453" d="M0 0H27V3H0z" class="prefix__cls-1" data-name="Rectangle 453" transform="translate(-.49 .034)"/>
            </g>
        </g>
        <g id="prefix__Group_139" data-name="Group 139" transform="translate(263 6037.262)">
            <g id="prefix__Group_138" data-name="Group 138">
                <path id="prefix__Path_269" d="M42.094 38.095A4.256 4.256 0 0 0 36.53 35.8l-.111.048-10.692 5.547a6.521 6.521 0 0 0 .648-2.8A6.594 6.594 0 1 0 14.54 42.55h-.055a9.049 9.049 0 0 0-8.406 5.85L2.558 60.538a4.224 4.224 0 1 0 7.931 2.905l1.379-4.389V78.14a6.574 6.574 0 0 0-8.557 9.95A6.075 6.075 0 0 0 0 93.479v11.051a1.318 1.318 0 0 0 1.318 1.319h13.188a1.318 1.318 0 0 0 1.319-1.318V93.479a6.061 6.061 0 0 0-2.353-4.774h9.982a6.06 6.06 0 0 0-2.354 4.774v11.051a1.318 1.318 0 0 0 1.318 1.319h13.188a1.318 1.318 0 0 0 1.319-1.318V93.479a6.075 6.075 0 0 0-3.311-5.389 6.588 6.588 0 0 0-5.92-11.169V49.944L39.8 43.659a4.256 4.256 0 0 0 2.294-5.564zm-22.313-3.458a3.956 3.956 0 1 1-3.956 3.956 3.956 3.956 0 0 1 3.956-3.956zM7.912 79.425a3.956 3.956 0 1 1-3.956 3.956 3.956 3.956 0 0 1 3.956-3.956zm5.275 23.786H2.637v-9.732a3.46 3.46 0 0 1 3.456-3.455h3.638a3.46 3.46 0 0 1 3.456 3.455zm21.1-9.732v9.732h-10.55v-9.732a3.46 3.46 0 0 1 3.456-3.455h3.638a3.46 3.46 0 0 1 3.456 3.455zm-5.275-14.054a3.956 3.956 0 1 1-3.956 3.956 3.96 3.96 0 0 1 3.956-3.956zm10.669-39.13a1.7 1.7 0 0 1-1 .976l-12.918 6.7a1.319 1.319 0 0 0-.712 1.171v29A6.5 6.5 0 0 0 23 86.068h-1.9V63.649h-2.638v22.419H13.92a6.533 6.533 0 0 0 .58-2.638V50.462a1.319 1.319 0 0 0-2.577-.4L7.991 62.6a1.586 1.586 0 0 1-2.2.877 1.619 1.619 0 0 1-.737-2.094l3.52-12.134a6.371 6.371 0 0 1 5.909-4.059h9.337a1.314 1.314 0 0 0 .607-.148l13.107-6.8a1.623 1.623 0 0 1 2.078.758 1.6 1.6 0 0 1 .069 1.295z" class="prefix__cls-1" data-name="Path 269" transform="translate(0 -32)"/>
            </g>
        </g>
        <g id="prefix__Group_141" data-name="Group 141" transform="translate(305.199 6082.036)">
            <g id="prefix__Group_140" data-name="Group 140">
                <path id="prefix__Path_270" d="M268.514 314.935a6.594 6.594 0 1 0-9.324-.121q.06.062.122.121a6.076 6.076 0 0 0-3.312 5.389v11.051a1.318 1.318 0 0 0 1.318 1.319h13.188a1.318 1.318 0 0 0 1.319-1.318v-11.052a6.075 6.075 0 0 0-3.311-5.389zm-4.6-8.665a3.956 3.956 0 1 1-3.956 3.956 3.956 3.956 0 0 1 3.954-3.956zm5.275 23.786h-10.55v-9.732a3.46 3.46 0 0 1 3.456-3.455h3.638a3.46 3.46 0 0 1 3.456 3.455z" class="prefix__cls-1" data-name="Path 270" transform="translate(-256 -303.618)"/>
            </g>
        </g>
        <g id="prefix__Group_143" data-name="Group 143" transform="translate(326.299 6082.036)">
            <g id="prefix__Group_142" data-name="Group 142">
                <path id="prefix__Path_271" d="M396.514 314.935a6.594 6.594 0 1 0-9.324-.121q.06.062.122.121a6.076 6.076 0 0 0-3.312 5.389v11.051a1.318 1.318 0 0 0 1.318 1.319h13.188a1.318 1.318 0 0 0 1.319-1.318v-11.052a6.075 6.075 0 0 0-3.311-5.389zm-4.6-8.665a3.956 3.956 0 1 1-3.956 3.956 3.956 3.956 0 0 1 3.954-3.956zm5.275 23.786h-10.55v-9.732a3.46 3.46 0 0 1 3.456-3.455h3.638a3.46 3.46 0 0 1 3.456 3.455z" class="prefix__cls-1" data-name="Path 271" transform="translate(-384 -303.618)"/>
            </g>
        </g>
    </g>
</svg>
