<svg xmlns="http://www.w3.org/2000/svg" width="81.761" height="81.476" viewBox="0 0 81.761 81.476">
    <g id="prefix__Group_366" data-name="Group 366" transform="translate(-277 -6064.987)">
        <path id="prefix___2463298" d="M79.815 55.842a4.654 4.654 0 0 0 .1-.963 7.649 7.649 0 0 0-.863-3.707 8.569 8.569 0 0 0 2.178-5.492 9.318 9.318 0 0 0-.875-4.1 27.9 27.9 0 0 1-3.068-12.08 15.382 15.382 0 0 0-15.363-15.359h-.406a15.787 15.787 0 0 0-15.77 15.77v4.712L43.027 31.9a13.055 13.055 0 0 1-3.849-9.292v-3.452a3.92 3.92 0 0 0-.909-7.6 15.739 15.739 0 0 0-29.72 0 3.92 3.92 0 0 0-.909 7.6v3.454a13.057 13.057 0 0 1-3.85 9.29L.783 34.908l.423.848A13.065 13.065 0 0 0 6.08 40.4a11.494 11.494 0 0 0-3.7 8.391v8.717h2.631V68.02h35.481v6.571a7.893 7.893 0 0 0 7.885 7.885h34.167v-19.23a11.374 11.374 0 0 0-2.729-7.404zm.1 7.4v6.088h-5.256v-7.863c.293-.219.59-.438.888-.652a17.915 17.915 0 0 0 2.906-2.434 8.765 8.765 0 0 1 1.463 4.865zM60.2 71.963h-3.939V61.45h9.391a9.08 9.08 0 0 0 1.122 1.41v16.988H64.73a5.2 5.2 0 0 0 .731-2.628 5.262 5.262 0 0 0-5.261-5.257zM48.377 61.45v7.885H43.12v-6.089a8.82 8.82 0 0 1 7.371-8.7l5.431-.905 5.456 4.092 2.794-1.4a12.4 12.4 0 0 0 .351 2.486h-10.89v13.144H51V61.45zm13.141-14.456a7.893 7.893 0 0 1-7.885-7.885v-4.461a7.523 7.523 0 0 1 2.69-5.773c2.054 1.255 7.72 4.439 13.079 4.916v5.319a7.893 7.893 0 0 1-7.884 7.884zm0 2.628a10.447 10.447 0 0 0 4.317-.937 6.319 6.319 0 0 0 .375.979 6.942 6.942 0 0 0-1.927 3.678l-2.626 1.313-3.908-2.932.644-2.576a10.491 10.491 0 0 0 3.125.476zM69.4 64.855c.237.135.469.271.727.4l1.355.678.48-1.438c.017-.053.047-.1.067-.155v15.508H69.4zM48.377 29.911A13.156 13.156 0 0 1 61.518 16.77h.406A12.749 12.749 0 0 1 74.659 29.5a30.491 30.491 0 0 0 3.33 13.224 6.735 6.735 0 0 1 .611 2.956c0 3.517-3.906 6.31-7.183 8.036l1.225 2.326a24.83 24.83 0 0 0 4.4-2.908 5.844 5.844 0 0 1 .246 1.745c0 1.339-1.239 2.33-3.28 3.806a14.541 14.541 0 0 0-3.849 3.565c-3.384-2.2-3.384-5.044-3.384-7.371 0-2.083.766-2.849 2.037-4.12l.89-.89-.848-.928a3.634 3.634 0 0 1-.672-1.708 10.494 10.494 0 0 0 3.849-8.124v-7.884h-1.314c-6.088 0-13.651-4.986-13.727-5.037l-.728-.485-.728.486A10.145 10.145 0 0 0 51 34.648v4.462a10.5 10.5 0 0 0 4.96 8.91l-.43 1.722c-4.547-2.376-7.158-7.186-7.158-13.26zm-2.767 5.844l.138-.277v1c0 6.563 2.677 11.9 7.464 14.946l-3.154.526a11.429 11.429 0 0 0-4.008 1.476 11.219 11.219 0 0 0-1.615 1.205v-5.84a11.5 11.5 0 0 0-3.7-8.392 13.079 13.079 0 0 0 4.874-4.644zm-4.441-1.995l1.564 1.565a13.875 13.875 0 0 1-4.351 3.383 11.4 11.4 0 0 0-3.513-1.208l-5.137-.855-.769-3.076a10.514 10.514 0 0 0 4.958-8.912V19.4h2.629v3.212a15.663 15.663 0 0 0 4.619 11.15zM15.524 19.4h15.77v5.257a7.885 7.885 0 0 1-15.77 0zm7.885 15.77a10.506 10.506 0 0 0 3.126-.474l.691 2.764-.861 1.338a3.547 3.547 0 0 1-5.936.05l-.863-1.294.715-2.858a10.48 10.48 0 0 0 3.128.476zm-5.879 4.065l.714 1.071a6.176 6.176 0 0 0 2.175 1.994 3.885 3.885 0 0 1-6.142-2.522zm11.048.983l.64-.995 3.323.555a3.887 3.887 0 0 1-6.165 2.5 6.17 6.17 0 0 0 2.2-2.064zm-5.17-36.59a13.184 13.184 0 0 1 12.023 7.885H11.385a13.184 13.184 0 0 1 12.023-7.885zM8.953 14.141h28.911a1.314 1.314 0 0 1 0 2.628H8.953a1.314 1.314 0 0 1 0-2.628zm-4.87 21.184l1.565-1.565a15.667 15.667 0 0 0 4.619-11.15V19.4H12.9v5.257a10.5 10.5 0 0 0 4.96 8.91l-.769 3.076-5.137.857a11.4 11.4 0 0 0-3.513 1.209 13.852 13.852 0 0 1-4.354-3.381zm.928 13.466a8.867 8.867 0 0 1 4.283-7.564 8.756 8.756 0 0 1 2.4-.99A6.553 6.553 0 0 0 23.4 43.051h.005a6.557 6.557 0 0 0 11.713-2.814 8.756 8.756 0 0 1 2.4.99 8.865 8.865 0 0 1 4.283 7.564v6.088h-5.85a6.74 6.74 0 0 0 .594-2.628c0-3.084-2.7-5.878-3.013-6.186l-1.861 1.857c.626.629 2.246 2.634 2.246 4.329s-1.62 3.7-2.245 4.329l-.61.614.321.8a52.433 52.433 0 0 1 2.372 7.4h-20.7a52.49 52.49 0 0 1 2.372-7.4l.318-.8-.607-.612c-.626-.628-2.246-2.632-2.246-4.327s1.62-3.7 2.245-4.329l-1.861-1.857c-.308.308-3.012 3.1-3.012 6.186a6.74 6.74 0 0 0 .594 2.628H5.011zm2.628 8.717h4.827c.076.1.155.2.225.279a46.234 46.234 0 0 0-2.291 7.605H7.639zm28.777 7.885a46.242 46.242 0 0 0-2.288-7.606c.07-.083.148-.184.225-.279h7.7a11.454 11.454 0 0 0-1.56 5.739v2.146zm21.16 14.455h-9.2a5.262 5.262 0 0 1-5.257-5.257v-2.628h5.257v2.628H60.2a2.628 2.628 0 1 1 0 5.257zm17.084 0v-7.885h5.257v7.885z" data-name="2463298" transform="translate(276.217 6063.987)" style="fill:#fff"/>
    </g>
</svg>
