<svg xmlns="http://www.w3.org/2000/svg" id="prefix__Outlines" width="82.64" height="82.64" viewBox="0 0 82.64 82.64">
    <defs>
        <style>
            .prefix__cls-1{fill:#fff}
        </style>
    </defs>
    <g id="prefix__Group_61" data-name="Group 61">
        <circle id="prefix__Ellipse_207" cx="1.5" cy="1.5" r="1.5" class="prefix__cls-1" data-name="Ellipse 207" transform="translate(42.599 41.559)"/>
        <circle id="prefix__Ellipse_208" cx="1.5" cy="1.5" r="1.5" class="prefix__cls-1" data-name="Ellipse 208" transform="translate(48.599 41.559)"/>
        <circle id="prefix__Ellipse_209" cx="1.5" cy="1.5" r="1.5" class="prefix__cls-1" data-name="Ellipse 209" transform="translate(53.599 41.559)"/>
        <path id="prefix__Path_249" d="M33.019 33.377A1.377 1.377 0 0 0 31.641 32h-8.264a1.377 1.377 0 1 0 0 2.755h8.264a1.377 1.377 0 0 0 1.378-1.378z" class="prefix__cls-1" data-name="Path 249" transform="translate(5.547 9.32)"/>
        <ellipse id="prefix__Ellipse_210" cx="1.5" cy="2" class="prefix__cls-1" data-name="Ellipse 210" rx="1.5" ry="2" transform="translate(42.599 29.559)"/>
        <ellipse id="prefix__Ellipse_211" cx="1.5" cy="2" class="prefix__cls-1" data-name="Ellipse 211" rx="1.5" ry="2" transform="translate(48.599 29.559)"/>
        <ellipse id="prefix__Ellipse_212" cx="1.5" cy="2" class="prefix__cls-1" data-name="Ellipse 212" rx="1.5" ry="2" transform="translate(53.599 29.559)"/>
        <path id="prefix__Path_250" d="M31.641 24h-8.264a1.377 1.377 0 1 0 0 2.755h8.264a1.377 1.377 0 1 0 0-2.755z" class="prefix__cls-1" data-name="Path 250" transform="translate(5.547 6.301)"/>
        <ellipse id="prefix__Ellipse_213" cx="1.5" cy="1" class="prefix__cls-1" data-name="Ellipse 213" rx="1.5" ry="1" transform="translate(42.599 19.559)"/>
        <ellipse id="prefix__Ellipse_214" cx="1.5" cy="1" class="prefix__cls-1" data-name="Ellipse 214" rx="1.5" ry="1" transform="translate(48.599 19.559)"/>
        <ellipse id="prefix__Ellipse_215" cx="1.5" cy="1" class="prefix__cls-1" data-name="Ellipse 215" rx="1.5" ry="1" transform="translate(53.599 19.559)"/>
        <path id="prefix__Path_251" d="M23.377 16a1.377 1.377 0 1 0 0 2.755h8.264a1.377 1.377 0 1 0 0-2.755z" class="prefix__cls-1" data-name="Path 251" transform="translate(5.547 3.283)"/>
        <path id="prefix__Path_252" d="M55.41 58.737a1.377 1.377 0 1 0-1.948 1.948l2.214 2.215-7.793 7.79-3.658-3.66a1.377 1.377 0 0 0-1.62-.242 21.875 21.875 0 0 1-3.822 1.592 1.377 1.377 0 0 0-.972 1.317v5.165H26.792V69.7a1.377 1.377 0 0 0-.973-1.317A21.875 21.875 0 0 1 22 66.788a1.377 1.377 0 0 0-1.62.242l-3.66 3.66-7.793-7.79 3.66-3.657a1.377 1.377 0 0 0 .242-1.62 22 22 0 0 1-1.593-3.823 1.377 1.377 0 0 0-1.317-.972H4.755V41.805H9.92a1.377 1.377 0 0 0 1.317-.973 22 22 0 0 1 1.592-3.823 1.377 1.377 0 0 0-.242-1.62l-3.66-3.657 7.793-7.792 2.212 2.213a1.377 1.377 0 1 0 1.948-1.948l-3.186-3.187a1.377 1.377 0 0 0-1.949 0l-9.74 9.74a1.377 1.377 0 0 0 0 1.949l3.928 3.927a24.711 24.711 0 0 0-1.008 2.417H3.377A1.377 1.377 0 0 0 2 40.428V54.2a1.377 1.377 0 0 0 1.377 1.377h5.548A24.712 24.712 0 0 0 9.933 58l-3.928 3.923a1.377 1.377 0 0 0 0 1.949l9.739 9.739a1.377 1.377 0 0 0 1.949 0l3.927-3.928a24.768 24.768 0 0 0 2.417 1.008v5.548a1.377 1.377 0 0 0 1.377 1.377h13.774a1.377 1.377 0 0 0 1.377-1.377v-5.548a24.767 24.767 0 0 0 2.417-1.008l3.927 3.928a1.377 1.377 0 0 0 1.949 0l9.742-9.739a1.377 1.377 0 0 0 0-1.949z" class="prefix__cls-1" data-name="Path 252" transform="translate(-2 5.024)"/>
        <path id="prefix__Path_253" d="M15.293 40.007a1.377 1.377 0 0 0-1.24 1.507 15.093 15.093 0 0 0 21.61 12.121 1.377 1.377 0 1 0-1.194-2.479 12.222 12.222 0 0 1-5.336 1.244A12.346 12.346 0 0 1 16.8 41.24a1.377 1.377 0 0 0-1.507-1.233z" class="prefix__cls-1" data-name="Path 253" transform="translate(2.546 12.339)"/>
        <path id="prefix__Path_254" d="M77.225 15.773h-3.793c-.076-.191-.154-.382-.24-.573l2.684-2.683a1.377 1.377 0 0 0 0-1.948l-5.843-5.843a1.377 1.377 0 0 0-1.948 0L65.4 7.41c-.191-.084-.382-.164-.573-.241V3.377A1.377 1.377 0 0 0 63.452 2h-8.264a1.377 1.377 0 0 0-1.377 1.377v3.792c-.191.077-.382.157-.573.241l-2.683-2.684a1.377 1.377 0 0 0-1.948 0l-5.844 5.844a1.378 1.378 0 1 0 1.949 1.948l4.869-4.87 2.4 2.4a1.377 1.377 0 0 0 1.611.247 12.332 12.332 0 0 1 2.01-.84 1.377 1.377 0 0 0 .964-1.314V4.755h5.509v3.387a1.377 1.377 0 0 0 .964 1.314 12.331 12.331 0 0 1 2.009.84 1.377 1.377 0 0 0 1.611-.247l2.4-2.4 3.9 3.9-2.4 2.4a1.377 1.377 0 0 0-.247 1.611 12.5 12.5 0 0 1 .84 2.008 1.377 1.377 0 0 0 1.314.964h3.385v5.509h-3.39a1.377 1.377 0 0 0-1.314.959 12.5 12.5 0 0 1-.84 2.008 1.377 1.377 0 0 0 .247 1.611l2.4 2.4-3.9 3.9-2.4-2.4a1.377 1.377 0 0 0-1.611-.247 12.332 12.332 0 0 1-2.01.84 1.377 1.377 0 0 0-.964 1.314v4.763a1.377 1.377 0 1 0 2.755 0V35.4c.191-.077.382-.157.573-.241l2.683 2.684a1.377 1.377 0 0 0 1.948 0l.307-.3v17.049a4.132 4.132 0 0 0-2.5 2.5H53.811v-1.376a1.377 1.377 0 0 0-1.377-1.377h-9.642v-2.755h15.151a1.377 1.377 0 0 0 1.377-1.377V17.151a1.377 1.377 0 0 0-1.377-1.377H48.3a1.377 1.377 0 1 0 0 2.755h8.264v8.264H20.755v-8.265h22.037a1.377 1.377 0 1 0 0-2.755H19.377A1.377 1.377 0 0 0 18 17.151v33.056a1.377 1.377 0 0 0 1.377 1.377h5.509a1.377 1.377 0 1 0 0-2.755h-4.131v-8.264h35.81v8.264H30.4a1.377 1.377 0 1 0 0 2.755h4.132v2.755h-8.268a1.377 1.377 0 0 0-1.377 1.377v1.377h-4.132a1.377 1.377 0 1 0 0 2.755h4.132v1.377a1.377 1.377 0 0 0 1.377 1.375h26.169a1.377 1.377 0 0 0 1.377-1.377v-1.375h14.027a4.122 4.122 0 1 0 5.256-5.256V34.781L75.877 32a1.377 1.377 0 0 0 0-1.948l-2.684-2.683c.085-.191.164-.382.24-.573h3.793a1.377 1.377 0 0 0 1.374-1.38v-8.265a1.377 1.377 0 0 0-1.375-1.378zm-56.47 22.038v-8.264h35.81v8.264zm30.3 22.037H27.641v-2.755h8.264a1.377 1.377 0 0 0 1.377-1.377v-4.132h2.755v4.132a1.377 1.377 0 0 0 1.377 1.377h9.641zm20.66 0a1.377 1.377 0 1 1 1.377-1.377 1.377 1.377 0 0 1-1.376 1.377z" class="prefix__cls-1" data-name="Path 254" transform="translate(4.037 -2)"/>
        <path id="prefix__Path_255" d="M50.57 22.258a1.377 1.377 0 1 0 1.653 2.2 8.2 8.2 0 0 0 0-13.154 1.38 1.38 0 0 0-1.661 2.2 5.449 5.449 0 0 1 0 8.76z" class="prefix__cls-1" data-name="Path 255" transform="translate(16.093 1.405)"/>
    </g>
</svg>
