<svg xmlns="http://www.w3.org/2000/svg" id="prefix__Page-1" width="79.124" height="79.394" viewBox="0 0 79.124 79.394">
    <defs>
        <style>
            .prefix__cls-1{fill:#fff}
        </style>
    </defs>
    <g id="prefix___035---Creative-Thinking" data-name="035---Creative-Thinking">
        <path id="prefix__Shape" d="M68.338 58.222a17.823 17.823 0 0 0-.032-6.748l6.046-14.626a.229.229 0 0 0 0-.029 24.864 24.864 0 0 1 4.248-7.387 1.976 1.976 0 0 0 .487-1.806L76.6 16.895a1.3 1.3 0 0 0-.132-.32c-.011-.02-.015-.044-.025-.062s-.057-.064-.083-.1a1.333 1.333 0 0 0-.186-.218 1.227 1.227 0 0 0-.144-.087 1.341 1.341 0 0 0-.2-.124 1.3 1.3 0 0 0-.309-.075c-.03 0-.057-.02-.087-.022a1.318 1.318 0 0 0-.727.163c-.02.011-.044.015-.063.026h-.014l-9.322 5.831a1.975 1.975 0 0 0-.932 1.628 24.882 24.882 0 0 1-2.219 8.248v.017l-3.022 7.321a17.682 17.682 0 0 0-4.716-1.707A71.661 71.661 0 0 0 55.1 24.4a14.464 14.464 0 0 0 3.28-10.6C57.555 6.087 50.6.517 50.3.283a1.321 1.321 0 0 0-2.092 1.38c.68 2.559.091 5.26-4.931 10.813a7.756 7.756 0 0 0-1.81 8.438 10.276 10.276 0 0 0 1.88 3.043c-.319 2.044-.57 3.98-.743 5.866a66.423 66.423 0 0 0-.23 9.384 17.961 17.961 0 0 0-3.287 2.3l-6.4-27.444c0-.028-.026-.048-.034-.073a1.256 1.256 0 0 0-.092-.255L26.022 1.626a3.047 3.047 0 0 0-5.727 1.344l-.5 13.755a1.375 1.375 0 0 0 .033.3v.06l6.532 27.942a14.83 14.83 0 0 0-3.052.457l-7.182-17.399a2.666 2.666 0 0 0-3.446-1.415L1.7 31.228a2.657 2.657 0 0 0-1.43 3.458l9.743 23.564a10.58 10.58 0 0 0 .544 21.144h58.087a10.587 10.587 0 0 0-.306-21.171zm-1.345-34.25l5.534-3.462-1.959 4.742a1.321 1.321 0 1 0 2.44 1.014l1.959-4.742 1.467 6.369a26.185 26.185 0 0 0-3.834 6.333 5.426 5.426 0 0 1-7.38-3.059 26.188 26.188 0 0 0 1.773-7.195zM63.956 34.36a8.042 8.042 0 0 0 3.291 2.4 8.36 8.36 0 0 0 3.23.683 6.983 6.983 0 0 0 .8-.049l-4.212 10.19a17.951 17.951 0 0 0-5.665-7.025zM45.87 24.91l6.632.406c.041 1.236.026 2.514-.015 3.812a27.686 27.686 0 0 1-6.614-.32c-.166-.024-.329-.042-.494-.065.132-1.246.293-2.509.487-3.833zm-.63-10.656c3.505-3.876 5.322-6.857 5.744-9.659a17.712 17.712 0 0 1 4.764 9.485 11.875 11.875 0 0 1-2.671 8.62q-3.912-.238-7.737-.476a5.528 5.528 0 0 1-.1-7.966zm-.1 17.126l.383.05a37.528 37.528 0 0 0 5.139.438c.547 0 1.122-.044 1.7-.089-.12 1.7-.317 3.481-.566 5.319-.326-.017-.646-.049-.973-.049a17.644 17.644 0 0 0-5.851 1.01 64.012 64.012 0 0 1 .166-6.68zM34.929 46.854l-3.777-16.126a1.32 1.32 0 0 0-2.57.6l3.394 14.514a14.923 14.923 0 0 0-2.878-.719L23.3 20.343a6.244 6.244 0 0 0 2.585.564c.083 0 .172-.012.256-.016l.933 3.995a1.32 1.32 0 1 0 2.57-.6l-.935-4a6.254 6.254 0 0 0 2.306-1.76l5.895 25.245a17.756 17.756 0 0 0-1.981 3.083zM26.863 18.14a4.378 4.378 0 0 1-4.408-1.769l.168-4.66a7.753 7.753 0 0 0 1.393.132 5.869 5.869 0 0 0 1.341-.15 6.719 6.719 0 0 0 2.448-1.22l2.223 4.113a4.386 4.386 0 0 1-3.164 3.557zM23.247 2.682a.412.412 0 0 1 .454.2l2.83 5.247a4.5 4.5 0 0 1-1.782.992 4.478 4.478 0 0 1-2.034-.1l.215-5.962a.41.41 0 0 1 .317-.377zm-9.554 26.429l1.007 2.443-4.883 2.027a1.322 1.322 0 0 0 1.014 2.443l4.885-2.028 1.01 2.445-2.444 1.015A1.324 1.324 0 0 0 14.788 40a1.339 1.339 0 0 0 .5-.1l2.444-1.015 1.01 2.445-4.889 2.031a1.323 1.323 0 1 0 1.011 2.445l4.885-2.027 1.068 2.584a15.353 15.353 0 0 0-8.548 10.428L2.705 33.668zm54.951 47.636H10.557a7.939 7.939 0 0 1 0-15.879 7.76 7.76 0 0 1 2.259.328 1.321 1.321 0 0 0 1.7-1.243 12.539 12.539 0 0 1 20.066-9.8 1.319 1.319 0 0 0 2.024-.6 15.189 15.189 0 0 1 28.729 9.824 1.322 1.322 0 0 0 1.545 1.683 8.227 8.227 0 0 1 1.762-.193 7.939 7.939 0 0 1 0 15.879z" class="prefix__cls-1" transform="translate(-.012)"/>
        <path id="prefix__Shape-2" d="M39.006 17.978a1.323 1.323 0 0 0 1.059-.523 9.924 9.924 0 0 0 1.76-7.791 1.323 1.323 0 1 0-2.556.681 7.35 7.35 0 0 1-1.313 5.513 1.323 1.323 0 0 0 1.059 2.117z" class="prefix__cls-1" data-name="Shape" transform="translate(12.044 2.797)"/>
        <path id="prefix__Shape-3" d="M41.569 46.634a6.5 6.5 0 0 0-2.838.662 7.939 7.939 0 0 0-13.715 7.794 1.323 1.323 0 0 0 1.217.8 1.309 1.309 0 0 0 .519-.106 1.323 1.323 0 0 0 .7-1.736 5.391 5.391 0 0 1-.437-2.125 5.293 5.293 0 0 1 5.293-5.293 5.24 5.24 0 0 1 4.783 3.043 1.445 1.445 0 0 0 .093.124 1.343 1.343 0 0 0 .07.132c.024.029.058.042.085.07a1.262 1.262 0 0 0 .205.172 1.283 1.283 0 0 0 .212.132 1.31 1.31 0 0 0 .238.074 1.216 1.216 0 0 0 .249.038 1.629 1.629 0 0 0 .505-.085 1 1 0 0 0 .1-.025 1.19 1.19 0 0 0 .123-.091 1.374 1.374 0 0 0 .139-.071 3.9 3.9 0 0 1 2.456-.868 3.97 3.97 0 0 1 3.6 2.309 1.323 1.323 0 1 0 2.408-1.1 6.616 6.616 0 0 0-6.005-3.85z" class="prefix__cls-1" data-name="Shape" transform="translate(7.758 14.235)"/>
        <path id="prefix__Shape-4" d="M18.875 39.069c-.2.065-4.875 1.682-4.875 6.549a1.323 1.323 0 1 0 2.646 0 4.549 4.549 0 0 1 3.073-4.04 1.326 1.326 0 0 0-.844-2.514z" class="prefix__cls-1" data-name="Shape" transform="translate(4.462 12.604)"/>
        <path id="prefix__Shape-5" d="M32 39.9a1.292 1.292 0 0 0 .322.04 1.323 1.323 0 0 0 1.282-1 5.644 5.644 0 0 1 5.341-4.291A1.323 1.323 0 0 0 38.939 32a8.242 8.242 0 0 0-7.9 6.295A1.323 1.323 0 0 0 32 39.9z" class="prefix__cls-1" data-name="Shape" transform="translate(9.896 10.343)"/>
    </g>
</svg>
