<svg xmlns="http://www.w3.org/2000/svg" id="prefix__Group_318" width="73.715" height="64.906" data-name="Group 318" viewBox="0 0 73.715 64.906">
    <path id="prefix__Path_283" d="M10.729 95.442H5.506L9.2 91.748a12.5 12.5 0 0 0 3.569-7.391A28.149 28.149 0 0 1 1.738 71.314 25.544 25.544 0 0 1 1 54.946 32.045 32.045 0 0 1 13.278 37.8a40.12 40.12 0 0 1 23.7-7.268c11.24 0 20.714 3.229 27.4 9.339a28.032 28.032 0 0 1 6.992 32.112 28.834 28.834 0 0 1-7.01 9.757c-6.692 6.133-16.16 9.375-27.38 9.375a49.819 49.819 0 0 1-12.392-1.576 19.355 19.355 0 0 1-13.859 5.9zM36.98 34.863c-17.891 0-28.869 10.67-31.812 21.244C2.387 66.1 6.487 75.541 16.136 81.365l1.078.651-.033 1.259a17.038 17.038 0 0 1-1.723 7.061 15.327 15.327 0 0 0 6.778-4.636l.915-1.081 1.357.406a44.754 44.754 0 0 0 12.472 1.763c22.266 0 32.407-13.482 32.407-26.009a23.8 23.8 0 0 0-7.929-17.711c-5.872-5.368-14.337-8.205-24.478-8.205z" data-name="Path 283" transform="translate(0 -30.536)" style="fill:#fff"/>
</svg>
