<svg xmlns="http://www.w3.org/2000/svg" id="prefix__dashboard" width="80.882" height="80.882" viewBox="0 0 80.882 80.882">
    <defs>
        <style>
            .prefix__cls-1{fill:#fff}
        </style>
    </defs>
    <path id="prefix__Path_236" d="M74.055 44.741V19.159a9.127 9.127 0 1 0-10.436-9.027H1v52.182h39.2a20.859 20.859 0 1 0 33.855-17.573zM72.75 3.609a6.523 6.523 0 1 1-6.523 6.523 6.53 6.53 0 0 1 6.523-6.523zM3.609 12.741H64a9.126 9.126 0 0 0 1.444 2.85l-7.975 7.979a3.777 3.777 0 0 0-3.354 0l-2.629-2.629a3.877 3.877 0 0 0 .391-1.678 3.914 3.914 0 1 0-7.827 0 3.85 3.85 0 0 0 .393 1.676L37.9 27.482a3.877 3.877 0 0 0-1.678-.391A3.914 3.914 0 1 0 40.136 31a3.85 3.85 0 0 0-.393-1.676l6.542-6.542a3.783 3.783 0 0 0 3.354 0l2.629 2.629a3.877 3.877 0 0 0-.391 1.678 3.914 3.914 0 0 0 7.827 0 3.85 3.85 0 0 0-.393-1.676l7.98-7.979a9.076 9.076 0 0 0 4.154 1.725v23.8a20.746 20.746 0 0 0-26.09 4.291v-5.809h-7.828V57.1h2.99a20.927 20.927 0 0 0-.317 2.6H3.609zm52.182 13.045a1.3 1.3 0 1 1-1.3 1.3 1.306 1.306 0 0 1 1.3-1.3zm-9.132-6.523a1.3 1.3 0 1 1 1.3 1.3 1.306 1.306 0 0 1-1.3-1.299zM37.527 31a1.3 1.3 0 1 1-1.3-1.3 1.306 1.306 0 0 1 1.3 1.3zm23.482 40.445a10.436 10.436 0 1 1 10.436-10.436 10.449 10.449 0 0 1-10.436 10.436zM42.745 50.926a20.715 20.715 0 0 0-1.551 3.56h-1.058V44.05h2.609zM59.7 42.812v5.218a13.018 13.018 0 0 0-10.574 18.333L44.6 68.976a18.2 18.2 0 0 1 15.1-26.164zM61 79.273a18.254 18.254 0 0 1-15.117-8.029l4.544-2.623a13 13 0 0 0 21.147 0l4.544 2.623a18.254 18.254 0 0 1-15.109 8.029zm16.409-10.3l-4.525-2.613a13.018 13.018 0 0 0-10.57-18.33v-5.218a18.2 18.2 0 0 1 15.1 26.164z" class="prefix__cls-1" data-name="Path 236" transform="translate(-1 -1)"/>
    <path id="prefix__Path_237" d="M46.275 41a5.275 5.275 0 1 0 5.275 5.275A5.28 5.28 0 0 0 46.275 41zm0 8.792a3.517 3.517 0 1 1 3.517-3.517 3.52 3.52 0 0 1-3.517 3.517z" class="prefix__cls-1" data-name="Path 237" transform="translate(15.266 15.266)"/>
    <path id="prefix__Path_238" d="M5 12h1.758v1.758H5z" class="prefix__cls-1" data-name="Path 238" transform="translate(-1.483 2.506)"/>
    <path id="prefix__Path_239" d="M9 12h12.308v1.758H9z" class="prefix__cls-1" data-name="Path 239" transform="translate(-1.967 2.506)"/>
    <path id="prefix__Path_240" d="M5 16h1.758v1.758H5z" class="prefix__cls-1" data-name="Path 240" transform="translate(-1.483 3.781)"/>
    <path id="prefix__Path_241" d="M9 16h12.308v1.758H9z" class="prefix__cls-1" data-name="Path 241" transform="translate(-1.967 3.781)"/>
    <path id="prefix__Path_242" d="M5 20h1.758v1.758H5z" class="prefix__cls-1" data-name="Path 242" transform="translate(-1.483 5.056)"/>
    <path id="prefix__Path_243" d="M9 20h12.308v1.758H9z" class="prefix__cls-1" data-name="Path 243" transform="translate(-1.967 5.056)"/>
    <path id="prefix__Path_244" d="M5 24h1.758v1.758H5z" class="prefix__cls-1" data-name="Path 244" transform="translate(-1.483 6.331)"/>
    <path id="prefix__Path_245" d="M9 24h12.308v1.758H9z" class="prefix__cls-1" data-name="Path 245" transform="translate(-1.967 6.331)"/>
    <path id="prefix__Path_246" d="M5 42.792h5.275V34H5zm1.758-7.033h1.759v5.275H6.758z" class="prefix__cls-1" data-name="Path 246" transform="translate(-1.483 11.75)"/>
    <path id="prefix__Path_247" d="M13 43.033h5.275V36H13zm1.758-5.275h1.758v3.517h-1.758z" class="prefix__cls-1" data-name="Path 247" transform="translate(3.201 11.865)"/>
    <path id="prefix__Path_248" d="M21 42.066h5.275V28H21zm1.758-12.308h1.758v10.55h-1.758z" class="prefix__cls-1" data-name="Path 248" transform="translate(6.002 11.218)"/>
</svg>
