<svg xmlns="http://www.w3.org/2000/svg" width="73.555" height="73.849" viewBox="0 0 73.555 73.849">
    <defs>
        <style>
            .prefix__cls-1{fill:#fff}
        </style>
    </defs>
    <g id="prefix__Group_325" data-name="Group 325" transform="translate(-584.271 -4239.693)">
        <path id="prefix__Path_284" d="M203.789 184.5c-2.335-1.468-6.088-.742-6.508-.655a1.082 1.082 0 0 0 .44 2.118c.908-.187 3.56-.485 4.917.368a1.082 1.082 0 1 0 1.152-1.831z" class="prefix__cls-1" data-name="Path 284" transform="translate(416.035 4082.58)"/>
        <circle id="prefix__Ellipse_216" cx="1.737" cy="1.737" r="1.737" class="prefix__cls-1" data-name="Ellipse 216" transform="translate(614.716 4270.636)"/>
        <circle id="prefix__Ellipse_217" cx="1.737" cy="1.737" r="1.737" class="prefix__cls-1" data-name="Ellipse 217" transform="translate(599.79 4270.636)"/>
        <path id="prefix__Path_285" d="M100.794 183.851c-.42-.088-4.173-.814-6.508.655a1.082 1.082 0 1 0 1.152 1.832c1.357-.853 4.009-.555 4.917-.368a1.082 1.082 0 0 0 .44-2.118z" class="prefix__cls-1" data-name="Path 285" transform="translate(503.871 4082.58)"/>
        <circle id="prefix__Ellipse_218" cx="1.911" cy="1.911" r="1.911" class="prefix__cls-1" data-name="Ellipse 218" transform="translate(607.079 4250.22)"/>
        <path id="prefix__Path_286" d="M65.8 41.738a8.715 8.715 0 0 0-6.2 2.562 1.085 1.085 0 0 1-1.55 0c-5.824-5.811-16.506-1.229-14.747 8.454a20.643 20.643 0 0 0-10.13-4.763 15.292 15.292 0 0 0 7.71-10.944 6.611 6.611 0 0 0 2.338-11.986 3.833 3.833 0 0 0 .762-2.292V6.946A4.567 4.567 0 0 0 40.446 2.5 2.7 2.7 0 0 0 37.755 0H16.133a8.556 8.556 0 0 0-8.644 8.445v15.482a2.466 2.466 0 0 0 .421 1.393 6.6 6.6 0 0 0 2.681 11.727 15.2 15.2 0 0 0 1.459 4.461 1.082 1.082 0 1 0 1.928-.982 13.054 13.054 0 0 1-1.031-2.751 17.764 17.764 0 0 0 10.693.566 9.427 9.427 0 0 1 4.195 0 17.823 17.823 0 0 0 10.7-.566A13.205 13.205 0 0 1 16.3 43.762a1.082 1.082 0 0 0-1.548 1.512 15.431 15.431 0 0 0 3.548 2.714A20.7 20.7 0 0 0 1.019 68.4a5.38 5.38 0 0 0 5.374 5.374h32.633a1.082 1.082 0 0 0 0-2.164H31.86l7.182-7.959a1.658 1.658 0 0 0-.079-2.331L37.71 60.1l1.73-.729a1.773 1.773 0 0 0 .837-2.563l-3.206-5.439a18.508 18.508 0 0 1 7.036 5.3c2.625 14.031 2.353 13.22 2.922 14.286-1.05.8-1.953.658-3.659.658a1.082 1.082 0 1 0 0 2.164c1.761 0 3.338.19 5.038-1.151a5.479 5.479 0 0 0 8.765-2.963l.952-5.082a.713.713 0 0 1 1.4 0c.011.056.954 5.1.968 5.156a5.471 5.471 0 0 0 10.618-.075l.111-.593a1.082 1.082 0 0 0-2.127-.4l-.1.556a3.312 3.312 0 0 1-6.394 0l-.945-5.049a2.879 2.879 0 0 0-5.657 0l-.945 5.045a3.312 3.312 0 0 1-6.394 0c-3.613-19.3-3.413-17.59-3.413-18.718a6.62 6.62 0 0 1 11.279-4.681 3.248 3.248 0 0 0 4.606 0 6.619 6.619 0 0 1 11.278 4.691 14.651 14.651 0 0 1-.558 3.451l-1.957 10.454a1.082 1.082 0 1 0 2.127.4l1.948-10.411a15.18 15.18 0 0 0 .6-3.894 8.785 8.785 0 0 0-8.77-8.775zM39.585 24.33a6.416 6.416 0 0 1-4.14-6.183 17.732 17.732 0 0 0 1.316-1.779h5.063v6.4a1.657 1.657 0 0 1-2.239 1.562zm4.432 6.242a4.454 4.454 0 0 1-2.929 4.178v-8.263c.047-.012.095-.024.142-.038a4.423 4.423 0 0 1 2.785 4.123zm-3.74-25.863a2.4 2.4 0 0 1 1.547 2.237v1.489h-2.018c.226-1.366.371-2.713.471-3.726zm1.547 5.891v3.6h-9.653a6.722 6.722 0 0 0-.02-3.606zM16.133 2.164h21.622a.536.536 0 0 1 .536.568c-.01.144-.291 3.5-.68 5.7h-6.54a6.668 6.668 0 0 0-10.667 0H9.653a6.391 6.391 0 0 1 6.48-6.268zm6.64 13.666A4.505 4.505 0 1 1 29.5 9.958c2.951 4.461-2.88 9.236-6.726 5.871zM9.653 10.6h9.672a6.723 6.723 0 0 0-.025 3.6H9.653zm.733 15.8v8.352a4.448 4.448 0 0 1-.001-8.352zm-.186-2.26a.314.314 0 0 1-.544-.212v-7.56h10.7a6.667 6.667 0 0 0 10.772 0H34.1c-6.968 8.845-18.331 2.28-23.9 7.772zm18.19 12.109a11.534 11.534 0 0 0-5.3 0 15.983 15.983 0 0 1-10.52-.949c-.03-.528-.021.1-.021-10.276 4.533-2.864 13.873.876 20.923-4.92a8.5 8.5 0 0 0 5.455 6.29c0 8.861.008 8.381-.021 8.907a15.981 15.981 0 0 1-10.519.95zm.808 13.262l-2.431 5.732a1.115 1.115 0 0 1-2.052 0l-2.429-5.73a15.564 15.564 0 0 0 6.912 0zm-22.8 22.1A3.214 3.214 0 0 1 3.183 68.4a18.49 18.49 0 0 1 11.233-17.047L11.2 56.81a1.773 1.773 0 0 0 .837 2.563l1.73.729-1.253 1.221a1.657 1.657 0 0 0-.079 2.331l7.182 7.959zm7.96-9.062l1.432-1.4a1.69 1.69 0 0 0-.576-2.794l-1.933-.814 3.014-5.113 3.826 16.5zm8.6 9.062L18 50.242a18.679 18.679 0 0 1 2.112-.3l2.605 6.147a3.278 3.278 0 0 0 6.036 0l2.607-6.147a18.464 18.464 0 0 1 2.111.3l-4.952 21.371zM38.2 57.548l-1.933.814a1.69 1.69 0 0 0-.576 2.794l1.432 1.4-5.763 6.38 3.826-16.5z" class="prefix__cls-1" data-name="Path 286" transform="translate(583.252 4239.693)"/>
        <path id="prefix__Path_287" d="M408.2 353.969a1.082 1.082 0 0 0 1.082-1.082v-2.179h2.179a1.082 1.082 0 1 0 0-2.164h-2.179v-2.179a1.082 1.082 0 1 0-2.164 0v2.179h-2.179a1.082 1.082 0 1 0 0 2.164h2.179v2.179a1.082 1.082 0 0 0 1.082 1.082z" class="prefix__cls-1" data-name="Path 287" transform="translate(238.521 3944.211)"/>
    </g>
</svg>
