<svg xmlns="http://www.w3.org/2000/svg" width="150" height="107.364" viewBox="0 0 150 107.364">
  <g id="Group_200" data-name="Group 200" transform="translate(-1674.814 -5528.844)">
    <path id="Path_206" data-name="Path 206" d="M140.105,32.558h-52A44.937,44.937,0,1,0,35.4,88.865L46.477,99.938a4.838,4.838,0,0,0,3.428,1.435,4.769,4.769,0,0,0,1.875-.381,4.851,4.851,0,0,0,2.988-4.482V88.747A46.459,46.459,0,0,0,60.1,87.195v.293a9.877,9.877,0,0,0,9.873,9.873H86.524l8.818,8.818a4.1,4.1,0,0,0,2.9,1.2,4.36,4.36,0,0,0,1.582-.322,4.111,4.111,0,0,0,2.549-3.808V97.331h37.733a9.877,9.877,0,0,0,9.873-9.873V42.431A9.877,9.877,0,0,0,140.105,32.558Z" transform="translate(1674.836 5528.828)" fill="#222"/>
    <path id="Path_207" data-name="Path 207" d="M63.55,95.79A2.357,2.357,0,0,0,61.611,98.1v9.692c0,.059,0,.117-.088.146a.181.181,0,0,1-.176-.029L49.739,96.346a2.424,2.424,0,0,0-1.2-.644,40.243,40.243,0,0,1,3.291-79.438A41.651,41.651,0,0,1,56.5,16,40.2,40.2,0,0,1,63.55,95.79ZM56.439,73.917h0a2.354,2.354,0,0,0-2.351,2.342h0A2.354,2.354,0,0,0,56.439,78.6h0a2.354,2.354,0,0,0,2.351-2.342h0A2.354,2.354,0,0,0,56.439,73.917ZM66.929,38.253A14.847,14.847,0,0,0,41.511,48.706a2.351,2.351,0,0,0,4.7,0,10.127,10.127,0,0,1,17.367-7.115,10.036,10.036,0,0,1,3.056,7.144,10.277,10.277,0,0,1-7.258,9.75,7.3,7.3,0,0,0-5.289,7.027v.761a2.351,2.351,0,0,0,4.7,0v-.761a2.654,2.654,0,0,1,1.939-2.547,14.978,14.978,0,0,0,10.638-14.23A14.744,14.744,0,0,0,66.929,38.253Z" transform="translate(1663.459 5517.541)" fill="#fff"/>
    <path id="Path_208" data-name="Path 208" d="M301.951,177.6a5.179,5.179,0,0,1-5.172,5.172H256.551a2.358,2.358,0,0,0-2.351,2.351V192l-8.551-8.551a2.33,2.33,0,0,0-1.675-.676h-17.6A5.179,5.179,0,0,1,221.2,177.6V175.3a44.945,44.945,0,0,0,24.449-48.1h51.072a5.18,5.18,0,0,1,5.172,5.172l.059,45.224Zm-10.667-38.789v-1.322a2.264,2.264,0,0,0-2.263-2.263H256.051a2.264,2.264,0,0,0-2.263,2.263v1.322a2.264,2.264,0,0,0,2.263,2.263h32.971A2.3,2.3,0,0,0,291.285,138.807Zm0,11.225V148.71a2.264,2.264,0,0,0-2.263-2.263H256.051a2.264,2.264,0,0,0-2.263,2.263v1.322a2.264,2.264,0,0,0,2.263,2.263h32.971A2.264,2.264,0,0,0,291.285,150.033Zm0,11.255v-1.322a2.264,2.264,0,0,0-2.263-2.263H256.051a2.264,2.264,0,0,0-2.263,2.263v1.322a2.264,2.264,0,0,0,2.263,2.263h32.971A2.3,2.3,0,0,0,291.285,161.287Zm0,11.225V171.19a2.264,2.264,0,0,0-2.263-2.263H256.051a2.264,2.264,0,0,0-2.263,2.263v1.322a2.264,2.264,0,0,0,2.263,2.263h32.971A2.264,2.264,0,0,0,291.285,172.513Z" transform="translate(1518.161 5438.688)" fill="#fff"/>
  </g>
</svg>
