<svg xmlns="http://www.w3.org/2000/svg" width="200" height="123.81" viewBox="0 0 200 123.81">
    <defs>
        <clipPath id="prefix__clip-path">
            <path id="prefix__Base" d="M0 0H200V123.81H0z" style="fill:#041243;opacity:.4"/>
        </clipPath>
        <style>
            .prefix__cls-3{fill:#fff}
        </style>
    </defs>
    <g id="prefix__Mask_Group_1" data-name="Mask Group 1">
        <g id="prefix__FED_reverse_logo" transform="translate(0 35.55)">
            <path id="prefix__Path_316" d="M22.151 263.543a66.918 66.918 0 0 0-7.258.285C7.223 264.554.125 266.02 0 266.045V281.2a146.483 146.483 0 0 1 14.892-2.251 64.45 64.45 0 0 1 7.258-.285z" class="prefix__cls-3" data-name="Path 316" transform="translate(0 -236.231)"/>
            <path id="prefix__Path_317" d="M49.329 4.047a58.165 58.165 0 0 0-8.669 1.541c-1.466.345-2.986.7-4.667 1.015-1.891.36-3.737.62-5.648.805q-.96.09-1.771.135V2.937a.421.421 0 0 0-.145-.335c-.61-.705-3.061-.89-3.347-.91a58.75 58.75 0 0 0-10.215.145A147.167 147.167 0 0 0 0 4.087v14.837c.125-.025 7.223-1.5 14.892-2.216a64.435 64.435 0 0 1 7.258-.285V6.408c0 .085.105 1.826 6.743 1.416.035 0 .985-.07 1.471-.115l.16-.015c.825-.08 1.636-.18 2.446-.29l.34-.045c.835-.12 1.676-.26 2.516-.415.065-.01.135-.025.2-.035v14.982c4.822-.915 8.259-2.116 13.316-2.556a30.82 30.82 0 0 1 10.87.67l.005-15.292a31.247 31.247 0 0 0-10.888-.666z" class="prefix__cls-3" data-name="Path 317" transform="translate(0 -1.541)"/>
            <path id="prefix__Path_318" d="M239.729 288.14c-5.057.44-8.494 1.641-13.316 2.556v14.722c-.01 0-.02.005-.035.005-1.9.36-3.742.62-5.648.8-5.488.525-7.294-.265-7.814-.72a1.441 1.441 0 0 1-.38-.555 1.041 1.041 0 0 0 .31.815c.54.485 1.691.94 4.537.94.94 0 2.056-.055 3.377-.18 1.916-.18 3.772-.445 5.678-.805 1.686-.32 3.212-.675 4.682-1.02a57.665 57.665 0 0 1 8.624-1.536 31.315 31.315 0 0 1 10.86.675v-15.022a30.921 30.921 0 0 0-10.875-.675z" class="prefix__cls-3" data-name="Path 318" transform="translate(-190.385 -258.131)"/>
            <path id="prefix__Path_319" d="M246.049 217.894l-2.306.52-1.026-2.126-1.031 2.126-2.3-.52 1.02 2.131-1.846 1.475 2.306.53v2.361l1.851-1.471 1.851 1.471v-2.361l2.306-.53-1.846-1.476z" class="prefix__cls-3" data-name="Path 319" transform="translate(-213.698 -193.908)"/>
            <path id="prefix__Path_320" d="M246.049 93l-2.306.52-1.026-2.126-1.031 2.126-2.3-.52 1.02 2.131-1.846 1.469 2.306.525V99.5l1.851-1.471 1.851 1.471v-2.37l2.306-.525-1.846-1.476z" class="prefix__cls-3" data-name="Path 320" transform="translate(-213.698 -82.028)"/>
            <path id="prefix__Path_321" d="M246.049 342.79l-2.306.525-1.026-2.131-1.031 2.131-2.3-.525 1.02 2.131-1.846 1.479 2.306.53v2.361l1.851-1.471 1.851 1.471v-2.361l2.306-.53-1.846-1.476z" class="prefix__cls-3" data-name="Path 321" transform="translate(-213.698 -305.788)"/>
            <path id="prefix__Path_322" d="M423.217 191.4l-2.3.52-1.031-2.126-1.03 2.126-2.3-.52 1.021 2.131-1.849 1.469 2.306.525v2.375l1.851-1.471 1.851 1.471v-2.37l2.306-.525-1.846-1.476z" class="prefix__cls-3" data-name="Path 322" transform="translate(-372.402 -170.173)"/>
            <path id="prefix__Path_323" d="M79.633 173.59l-2.306.525-1.027-2.131-1.031 2.131-2.3-.525 1.015 2.131-1.84 1.479 2.3.53v2.361l1.851-1.471 1.851 1.471v-2.361l2.306-.53-1.846-1.476z" class="prefix__cls-3" data-name="Path 323" transform="translate(-64.625 -154.221)"/>
            <path id="prefix__Path_324" d="M1609.6 87.216c-4.717 0-8.514 3.377-8.514 8.119 0 4.777 3.8 8.119 8.544 8.119 4.712 0 8.514-3.347 8.514-8.119 0-4.742-3.8-8.119-8.544-8.119zm.03 12.956a4.844 4.844 0 1 1 4.592-4.837 4.615 4.615 0 0 1-4.59 4.837z" class="prefix__cls-3" data-name="Path 324" transform="translate(-1434.228 -78.287)"/>
            <path id="prefix__Path_325" d="M1307.607 103.094h3.562v-9.7c0-3.922-2.371-6.173-6.448-6.173-2.651 0-4.537.02-5.393.035v.01a3.22 3.22 0 0 0 2.571 3.152h2.451c1.706 0 2.981.7 2.981 2.736v.215h-.515c-2.526 0-9.184.335-9.184 5.263 0 3.1 2.491 4.832 5.263 4.832a5.009 5.009 0 0 0 4.712-2.736h.06a9.936 9.936 0 0 0-.06 1.1zm-.24-6.723c0 1.886-1.461 4.077-3.5 4.077a2.067 2.067 0 0 1-2.341-2.006c0-2.161 3.2-2.431 5.172-2.431h.67z" class="prefix__cls-3" data-name="Path 325" transform="translate(-1162.397 -78.287)"/>
            <path id="prefix__Path_326" d="M637.191 45.218h4.522a3.842 3.842 0 0 0 2.006-3.377h-6.533v-6.112h9.41v-3.377h-13.332v21.6h3.922v-8.734z" class="prefix__cls-3" data-name="Path 326" transform="translate(-567.267 -29.141)"/>
            <path id="prefix__Path_327" d="M1552.726 90.72a3.843 3.843 0 0 0-3.842 3.842l-.02.145v11.531h3.862z" class="prefix__cls-3" data-name="Path 327" transform="translate(-1387.447 -81.426)"/>
            <path id="prefix__Path_328" d="M1447.384 63.811v-3.377a3.617 3.617 0 0 1-.7.06 2.755 2.755 0 0 1-3.072-2.921V51.55h3.527v-3.072h-3.527V43.3a3.844 3.844 0 0 0-3.772 3.116v2.066h-2.1v3.068h2.006v6.508c0 5.2 4.287 5.838 6.448 5.838a6.571 6.571 0 0 0 1.19-.085z" class="prefix__cls-3" data-name="Path 328" transform="translate(-1287.907 -38.944)"/>
            <path id="prefix__Path_329" d="M905.938 49H906a7.966 7.966 0 0 0-.06 1.005v1.276h3.647V29.376a3.843 3.843 0 0 0-3.842 3.842l-.02.145V36.5c0 .485.03.88.03.88h-.06s-1.065-1.976-4.472-1.976c-4.107 0-7.028 3.192-7.028 8.119 0 4.8 2.676 8.119 6.873 8.119a5.377 5.377 0 0 0 4.87-2.642zm-7.849-5.478c0-3.071 1.766-4.807 3.9-4.807 2.586 0 3.862 2.371 3.862 4.777 0 3.437-1.886 4.9-3.892 4.9-2.284-.002-3.87-1.918-3.87-4.869z" class="prefix__cls-3" data-name="Path 329" transform="translate(-801.002 -26.475)"/>
            <path id="prefix__Path_330" d="M1552.733 47.1a1.9 1.9 0 1 0-1.9-1.9 1.9 1.9 0 0 0 1.9 1.9z" class="prefix__cls-3" data-name="Path 330" transform="translate(-1389.21 -38.944)"/>
            <path id="prefix__Path_331" d="M754.9 100.387l-1.8-1.806a7.564 7.564 0 0 1-4.327 1.591 4.411 4.411 0 0 1-4.652-4.107h10.705s.09-1.035.09-1.491c0-4.107-2.4-7.359-6.873-7.359-4.622 0-7.879 3.347-7.879 8.119a7.945 7.945 0 0 0 8.334 8.119 9.058 9.058 0 0 0 6.402-3.066zM747.949 90.2a3 3 0 0 1 3.071 3.227h-6.783a3.611 3.611 0 0 1 3.712-3.227z" class="prefix__cls-3" data-name="Path 331" transform="translate(-663.023 -78.287)"/>
            <path id="prefix__Path_332" d="M1069.416 98.581a7.579 7.579 0 0 1-4.327 1.591 4.411 4.411 0 0 1-4.652-4.107h10.705s.09-1.035.09-1.491c0-4.107-2.4-7.359-6.873-7.359-4.622 0-7.879 3.347-7.879 8.119a7.945 7.945 0 0 0 8.334 8.119 9.081 9.081 0 0 0 6.408-3.071zm-5.147-8.384a3 3 0 0 1 3.072 3.227h-6.783a3.611 3.611 0 0 1 3.711-3.224z" class="prefix__cls-3" data-name="Path 332" transform="translate(-946.377 -78.287)"/>
            <path id="prefix__Path_333" d="M1222.728 90.73a6.861 6.861 0 0 1 .915.06v-3.8a4.494 4.494 0 0 0-.7-.06 5.342 5.342 0 0 0-4.927 3.987h-.06a10.807 10.807 0 0 0 .06-1.1v-2.5h-3.716v15.512h3.862v-6.321a8.225 8.225 0 0 1 .335-2.521 4.389 4.389 0 0 1 4.231-3.257z" class="prefix__cls-3" data-name="Path 333" transform="translate(-1087.753 -78.029)"/>
            <path id="prefix__Path_334" d="M1789.108 87.216a6.021 6.021 0 0 0-5.508 3.227h-.06a9.726 9.726 0 0 0 .06-1.066v-1.8h-3.712v15.512h3.862v-7.114a6.6 6.6 0 0 1 .275-2.066 4.283 4.283 0 0 1 4.167-3.162c1.976 0 2.466 1.276 2.466 3.162v9.184h3.832v-9.98c0-4.101-1.946-5.897-5.382-5.897z" class="prefix__cls-3" data-name="Path 334" transform="translate(-1594.394 -78.287)"/>
            <path id="prefix__Path_335" d="M645.333 295.95c0 3.422-2.221 5.488-5.593 5.488s-5.568-2.066-5.568-5.438v-11.7h-1.1v11.75c0 3.932 2.756 6.433 6.688 6.433s6.663-2.5 6.663-6.433V284.3h-1.1v11.65z" class="prefix__cls-3" data-name="Path 335" transform="translate(-567.095 -254.835)"/>
            <path id="prefix__Path_336" d="M792.961 330.384a5.885 5.885 0 0 0-5.413 3.6h-.05a5.462 5.462 0 0 0 .1-1.045v-2.246h-1.071v12.767h1.073v-6.233a6.287 6.287 0 0 1 .205-1.736 5.409 5.409 0 0 1 5.158-4.057c2.861 0 3.142 2.1 3.142 4.317v7.709h1.07v-8.1c-.002-3.01-.897-4.976-4.214-4.976z" class="prefix__cls-3" data-name="Path 336" transform="translate(-704.559 -296.113)"/>
            <path id="prefix__Path_337" d="M917.088 333.312h1.07v12.766h-1.07z" class="prefix__cls-3" data-name="Path 337" transform="translate(-821.512 -298.736)"/>
            <path id="prefix__Path_338" d="M956.835 343.322c-.23.61-.435 1.381-.435 1.381h-.05s-.205-.765-.435-1.381l-3.932-10.01h-1.151l5.027 12.766h1.021l5-12.766h-1.125z" class="prefix__cls-3" data-name="Path 338" transform="translate(-851.739 -298.736)"/>
            <path id="prefix__Path_339" d="M1068.539 330.384c-3.266 0-6.2 2.4-6.2 6.713a6.418 6.418 0 0 0 6.588 6.663 6.951 6.951 0 0 0 4.542-1.761l-.585-.9a5.774 5.774 0 0 1-3.957 1.611c-2.961 0-5.463-2.121-5.463-5.823h10.24s.05-.41.05-.69c0-3.086-1.741-5.818-5.213-5.818zm-5 5.513a4.966 4.966 0 0 1 4.977-4.517c2.121 0 3.982 1.406 4.112 4.517z" class="prefix__cls-3" data-name="Path 339" transform="translate(-951.623 -296.113)"/>
            <path id="prefix__Path_340" d="M1195.885 335.881h-.05a5.472 5.472 0 0 0 .1-1.046v-2.426h-1.07v12.766h1.07v-5.518a8.954 8.954 0 0 1 .385-2.681c.56-1.891 1.811-3.577 3.8-3.577a4.214 4.214 0 0 1 .585.05v-1.071a4.052 4.052 0 0 0-.74-.075c-2.009.006-3.44 1.612-4.08 3.578z" class="prefix__cls-3" data-name="Path 340" transform="translate(-1070.339 -297.833)"/>
            <path id="prefix__Path_341" d="M1264.945 333.708c0-1.661 1.431-2.321 2.886-2.321a4.364 4.364 0 0 1 3.217 1.2l.64-.87a5.034 5.034 0 0 0-3.777-1.381c-2.171 0-4.087 1.176-4.087 3.447 0 4.162 7.023 3.242 7.023 6.483 0 1.581-1.381 2.4-2.936 2.4a5.558 5.558 0 0 1-3.957-1.611l-.69.815a6.177 6.177 0 0 0 4.622 1.836c2.351 0 4.087-1.406 4.087-3.447-.01-4.225-7.028-3.23-7.028-6.551z" class="prefix__cls-3" data-name="Path 341" transform="translate(-1131.611 -296.07)"/>
            <path id="prefix__Path_342" d="M1374.432 333.312h1.07v12.761h-1.07z" class="prefix__cls-3" data-name="Path 342" transform="translate(-1231.193 -298.736)"/>
            <path id="prefix__Path_343" d="M1412.469 310.853v-7.023h3.346v-.97h-3.346v-3.627h-1.069v3.627h-1.686v.97h1.686v7.1c0 4.237 2.731 4.722 4.062 4.722a3.667 3.667 0 0 0 .64-.05v-1a3.031 3.031 0 0 1-.585.05c-1.033.002-3.048-.433-3.048-3.799z" class="prefix__cls-3" data-name="Path 343" transform="translate(-1262.797 -268.208)"/>
            <path id="prefix__Path_344" d="M1489.425 343.5c-.255.61-.435 1.2-.435 1.2h-.05s-.205-.585-.46-1.2l-4.212-10.185h-1.151L1488.4 346l-.92 2.121c-.51 1.2-1.276 2.3-2.5 2.3a2.734 2.734 0 0 1-1.581-.61l-.485.92a3.449 3.449 0 0 0 2.066.715 3.5 3.5 0 0 0 3.242-2.376l6.563-15.753h-1.15z" class="prefix__cls-3" data-name="Path 344" transform="translate(-1328.368 -298.736)"/>
            <path id="prefix__Path_345" d="M1374.432 284.3h1.07v1.861h-1.07z" class="prefix__cls-3" data-name="Path 345" transform="translate(-1231.193 -254.835)"/>
            <path id="prefix__Path_346" d="M917.088 284.3h1.07v1.861h-1.07z" class="prefix__cls-3" data-name="Path 346" transform="translate(-821.512 -254.835)"/>
        </g>
    </g>
</svg>
