<svg xmlns="http://www.w3.org/2000/svg" id="prefix__paper" width="80.68" height="79.894" viewBox="0 0 80.68 79.894">
    <defs>
        <style>
            .prefix__cls-1{fill:#004c97}
        </style>
    </defs>
    <path id="prefix__Path_227" d="M80.016 12.283L70.491 3.2a1.932 1.932 0 0 0-1.437-.707H30.9a2.023 2.023 0 0 0-2.02 2.021v6.206l-13.447 2.305a1.992 1.992 0 0 0-1.616 2.3L14.5 19.3c-4.371 1.471-8.858 2.987-13.19 4.543a2 2 0 0 0-1.2 2.542l8.622 23.956a1.182 1.182 0 0 0 2.224-.8l-8.49-23.6c4.081-1.461 8.308-2.891 12.434-4.282l4.061 23.675L23.638 72.6a2 2 0 0 0 2.3 1.62l12.656-2.172 9.89-1.7L33.607 75.7l-11.729 4.217-9.109-25.337a1.182 1.182 0 0 0-2.224.8l9.238 25.7a2 2 0 0 0 1.87 1.31 1.955 1.955 0 0 0 .672-.119l12.082-4.344 27.433-9.86 5.241-.9h11.578a2.026 2.026 0 0 0 2.021-2.027V13.615a1.7 1.7 0 0 0-.664-1.332zm-3.131.28h-6.06c-.283 0-.946.007-1.114-.16a.665.665 0 0 1-.085-.403l-.014-6.369zM78.316 64.8H31.244V41.769a1.182 1.182 0 1 0-2.364 0V65.14a2.026 2.026 0 0 0 2.02 2.025h22.19l-14.9 2.554-12.29 2.109-4.6-26.893-5.09-29.645 12.67-2.172v23.167a1.182 1.182 0 1 0 2.364 0V4.857h36L67.262 12a2.814 2.814 0 0 0 .783 2.082 3.614 3.614 0 0 0 2.626.847h7.646z" class="prefix__cls-1" data-name="Path 227" transform="translate(0 -2.493)"/>
    <path id="prefix__Path_228" d="M234.43 113a1.556 1.556 0 0 0 1.556 1.556h44.487a1.556 1.556 0 0 0 0-3.112h-44.487A1.556 1.556 0 0 0 234.43 113z" class="prefix__cls-1" data-name="Path 228" transform="translate(-211.335 -94.446)"/>
    <path id="prefix__Path_229" d="M280.473 164.731h-44.487a1.556 1.556 0 0 0 0 3.112h44.487a1.556 1.556 0 0 0 0-3.112z" class="prefix__cls-1" data-name="Path 229" transform="translate(-211.335 -139.413)"/>
    <path id="prefix__Path_230" d="M280.473 218.013h-44.487a1.556 1.556 0 1 0 0 3.112h44.487a1.556 1.556 0 0 0 0-3.112z" class="prefix__cls-1" data-name="Path 230" transform="translate(-211.335 -184.38)"/>
    <path id="prefix__Path_231" d="M280.473 271.3h-44.487a1.556 1.556 0 1 0 0 3.112h44.487a1.556 1.556 0 0 0 0-3.112z" class="prefix__cls-1" data-name="Path 231" transform="translate(-211.335 -229.347)"/>
    <path id="prefix__Path_232" d="M280.473 324.578h-44.487a1.556 1.556 0 1 0 0 3.112h44.487a1.556 1.556 0 0 0 0-3.112z" class="prefix__cls-1" data-name="Path 232" transform="translate(-211.335 -274.314)"/>
</svg>
