<svg xmlns="http://www.w3.org/2000/svg" width="70" height="70.239" viewBox="0 0 70 70.239">
    <defs>
        <style>
            .prefix__cls-1{fill:#fff}
        </style>
    </defs>
    <g id="prefix__Page-1" transform="translate(-.012)">
        <g id="prefix___035---Creative-Thinking" data-name="035---Creative-Thinking" transform="translate(.012)">
            <path id="prefix__Shape" d="M60.459 51.508a15.768 15.768 0 0 0-.028-5.97L65.78 32.6a.2.2 0 0 0 0-.026 22 22 0 0 1 3.755-6.535 1.748 1.748 0 0 0 .431-1.6l-2.193-9.494a1.148 1.148 0 0 0-.117-.283c-.009-.018-.013-.039-.022-.055s-.05-.056-.074-.087a1.18 1.18 0 0 0-.165-.193 1.085 1.085 0 0 0-.127-.077 1.186 1.186 0 0 0-.181-.11 1.152 1.152 0 0 0-.273-.067c-.027 0-.05-.018-.077-.02a1.166 1.166 0 0 0-.644.144c-.018.009-.039.013-.056.023h-.012l-8.247 5.159a1.747 1.747 0 0 0-.825 1.44 22.013 22.013 0 0 1-1.963 7.3v.013l-2.673 6.477a15.643 15.643 0 0 0-4.172-1.51 63.4 63.4 0 0 0 .6-11.511 12.8 12.8 0 0 0 2.9-9.379C50.92 5.385 44.768.458 44.505.251a1.168 1.168 0 0 0-1.851 1.221c.6 2.264.081 4.653-4.362 9.566a6.862 6.862 0 0 0-1.6 7.465 9.091 9.091 0 0 0 1.662 2.697c-.283 1.809-.5 3.521-.658 5.189a58.765 58.765 0 0 0-.2 8.3 15.89 15.89 0 0 0-2.908 2.031l-5.667-24.281c0-.025-.023-.042-.03-.064a1.111 1.111 0 0 0-.082-.226l-5.786-10.71a2.7 2.7 0 0 0-5.066 1.189l-.44 12.172a1.217 1.217 0 0 0 .029.261v.053l5.779 24.72a13.12 13.12 0 0 0-2.7.4l-6.357-15.387a2.358 2.358 0 0 0-3.049-1.247L1.5 27.627a2.35 2.35 0 0 0-1.261 3.059L8.86 51.533a9.36 9.36 0 0 0 .481 18.706H60.73a9.366 9.366 0 0 0-.271-18.73zm-1.19-30.3l4.9-3.062-1.733 4.2a1.169 1.169 0 1 0 2.158.9l1.733-4.2 1.3 5.634a23.166 23.166 0 0 0-3.387 5.6 4.8 4.8 0 0 1-6.529-2.707 23.169 23.169 0 0 0 1.558-6.366zM56.583 30.4a7.115 7.115 0 0 0 2.912 2.125 7.4 7.4 0 0 0 2.858.6 6.178 6.178 0 0 0 .708-.043L59.333 42.1a15.881 15.881 0 0 0-5.015-6.215zm-16-8.361l5.868.359c.036 1.093.023 2.224-.013 3.373a24.494 24.494 0 0 1-5.851-.283c-.147-.021-.291-.037-.437-.057.117-1.1.259-2.22.431-3.391zm-.557-9.427c3.1-3.429 4.708-6.066 5.082-8.546a15.669 15.669 0 0 1 4.215 8.391 10.505 10.505 0 0 1-2.364 7.623q-3.461-.211-6.845-.421a4.891 4.891 0 0 1-.09-7.047zm-.089 15.152l.339.044a33.2 33.2 0 0 0 4.547.387c.484 0 .993-.039 1.5-.078-.106 1.507-.28 3.08-.5 4.706-.288-.015-.571-.043-.861-.043a15.609 15.609 0 0 0-5.176.893 56.632 56.632 0 0 1 .147-5.909zM30.9 41.451l-3.339-14.266a1.168 1.168 0 0 0-2.274.534l3 12.841a13.2 13.2 0 0 0-2.546-.636L20.618 18a5.524 5.524 0 0 0 2.287.5c.074 0 .152-.011.227-.014l.826 3.534a1.168 1.168 0 1 0 2.274-.534l-.832-3.54a5.533 5.533 0 0 0 2.04-1.557l5.211 22.335a15.708 15.708 0 0 0-1.751 2.727zm-7.136-25.4a3.873 3.873 0 0 1-3.9-1.565l.148-4.123a6.859 6.859 0 0 0 1.232.117 5.193 5.193 0 0 0 1.187-.132A5.944 5.944 0 0 0 24.6 9.266l1.966 3.634a3.88 3.88 0 0 1-2.8 3.147zm-3.2-13.675a.364.364 0 0 1 .4.18l2.5 4.642a3.982 3.982 0 0 1-1.577.878 3.962 3.962 0 0 1-1.8-.085l.19-5.275a.363.363 0 0 1 .291-.343zm-8.449 23.378l.892 2.161-4.321 1.794a1.17 1.17 0 0 0 .9 2.161l4.314-1.795.893 2.163-2.162.9a1.171 1.171 0 0 0 .448 2.252 1.184 1.184 0 0 0 .446-.089l2.162-.9.893 2.163-4.325 1.8a1.171 1.171 0 1 0 .895 2.163l4.321-1.793.945 2.286a13.583 13.583 0 0 0-7.562 9.226l-8.459-20.46zM60.73 67.9H9.341a7.024 7.024 0 0 1 0-14.048 6.865 6.865 0 0 1 2 .29 1.168 1.168 0 0 0 1.505-1.1A11.093 11.093 0 0 1 30.6 44.367a1.167 1.167 0 0 0 1.79-.527 13.438 13.438 0 0 1 25.41 8.691 1.17 1.17 0 0 0 1.366 1.489 7.278 7.278 0 0 1 1.559-.171 7.024 7.024 0 0 1 0 14.048z" class="prefix__cls-1" transform="translate(-.012)"/>
            <path id="prefix__Shape-2" d="M38.814 16.618a1.13 1.13 0 0 0 .9-.446 8.477 8.477 0 0 0 1.5-6.655 1.13 1.13 0 1 0-2.184.582 6.279 6.279 0 0 1-1.121 4.709 1.13 1.13 0 0 0 .9 1.808z" class="prefix__cls-1" data-name="Shape" transform="translate(6.397 1.127)"/>
            <path id="prefix__Shape-3" d="M39.062 46.255a5.556 5.556 0 0 0-2.424.565 6.781 6.781 0 0 0-11.715 6.657 1.13 1.13 0 0 0 1.04.687 1.118 1.118 0 0 0 .443-.09 1.13 1.13 0 0 0 .6-1.483 4.6 4.6 0 0 1-.373-1.815 4.521 4.521 0 0 1 4.521-4.521 4.476 4.476 0 0 1 4.086 2.6 1.235 1.235 0 0 0 .079.106 1.147 1.147 0 0 0 .06.113c.02.025.05.036.072.06a1.078 1.078 0 0 0 .175.147 1.1 1.1 0 0 0 .181.113 1.119 1.119 0 0 0 .2.063 1.038 1.038 0 0 0 .212.033 1.391 1.391 0 0 0 .432-.072.852.852 0 0 0 .089-.021 1.017 1.017 0 0 0 .105-.078 1.176 1.176 0 0 0 .119-.061 3.333 3.333 0 0 1 2.1-.741 3.391 3.391 0 0 1 3.074 1.972 1.13 1.13 0 1 0 2.057-.938 5.651 5.651 0 0 0-5.133-3.296z" class="prefix__cls-1" data-name="Shape" transform="translate(4.462 8.16)"/>
            <path id="prefix__Shape-4" d="M18.164 39.058c-.171.056-4.164 1.437-4.164 5.594a1.13 1.13 0 1 0 2.26 0 3.886 3.886 0 0 1 2.625-3.452 1.133 1.133 0 1 0-.721-2.147z" class="prefix__cls-1" data-name="Shape" transform="translate(2.385 6.83)"/>
            <path id="prefix__Shape-5" d="M31.856 38.748a1.1 1.1 0 0 0 .275.034 1.13 1.13 0 0 0 1.1-.856 4.82 4.82 0 0 1 4.562-3.665A1.13 1.13 0 0 0 37.782 32a7.04 7.04 0 0 0-6.748 5.377 1.13 1.13 0 0 0 .822 1.371z" class="prefix__cls-1" data-name="Shape" transform="translate(5.346 5.605)"/>
        </g>
    </g>
</svg>
