<svg xmlns="http://www.w3.org/2000/svg" width="80.61" height="80.351" viewBox="0 0 80.61 80.351">
    <defs>
        <style>
            .prefix__cls-1{fill:#fff}
        </style>
    </defs>
    <g id="prefix__Architecture_Building" data-name="Architecture &amp; Building" transform="translate(0 -.82)">
        <g id="prefix__Group_56" data-name="Group 56" transform="translate(58.372 59.088)">
            <g id="prefix__Group_55" data-name="Group 55">
                <path id="prefix__Path_234" d="M374.1 360.833a1.1 1.1 0 0 0-1.2.239l-12.06 12.056a1.1 1.1 0 0 0 .78 1.883h12.056a1.1 1.1 0 0 0 1.1-1.1v-12.059a1.1 1.1 0 0 0-.676-1.019zm-9.815 11.972l8.29-8.29v8.29z" class="prefix__cls-1" data-name="Path 234" transform="translate(-360.517 -360.749)"/>
            </g>
        </g>
        <g id="prefix__Group_58" data-name="Group 58" transform="translate(0 .82)">
            <g id="prefix__Group_57" data-name="Group 57">
                <path id="prefix__Path_235" d="M79.879 38.613a1.183 1.183 0 0 0-1.289.256l-3.544 3.544V18.32a1.183 1.183 0 0 0-1.183-1.183h-9.091l3.3-3.3 3.18-3.18a3.608 3.608 0 0 0 0-5.1l-3.675-3.681a3.608 3.608 0 0 0-5.1 0l-3.184 3.182L55.449 8.9l-8.235 8.235H10.489V5.431a1.183 1.183 0 0 0-1.183-1.183A9.316 9.316 0 0 0 0 13.554v50.253a1.186 1.186 0 0 0 .028.254 8.962 8.962 0 0 0 8.935 8.281h36.154l-6.809 6.809a1.183 1.183 0 0 0 .837 2.02h40.281a1.183 1.183 0 0 0 1.183-1.183V39.706a1.184 1.184 0 0 0-.73-1.093zM64.148 3.55a1.243 1.243 0 0 1 1.755 0l3.677 3.677a1.243 1.243 0 0 1 0 1.755l-2.344 2.345L61.8 5.894zM60.13 7.568L65.563 13l-2.171 2.171-5.433-5.432zM78.244 53h-2.183a1.183 1.183 0 1 0 0 2.366h2.183v3.565h-2.183a1.183 1.183 0 1 0 0 2.366h2.183v3.565h-2.183a1.183 1.183 0 1 0 0 2.366h2.183V70.8h-2.183a1.183 1.183 0 1 0 0 2.366h2.183v5.643H42l11.952-11.955a1.183 1.183 0 0 0-1.673-1.673l-4.8 4.8H8.963a6.559 6.559 0 0 1-6.591-6.383q.01-.337.052-.668.02-.157.047-.313l.006-.035q.025-.139.055-.276l.018-.076q.027-.116.058-.231l.035-.124c.017-.06.035-.12.054-.179l.06-.177c.014-.041.028-.082.044-.123.029-.077.059-.154.091-.23l.027-.066c.04-.094.082-.188.127-.28l.006-.012a6.965 6.965 0 0 1 4.841-3.786h.018c.1-.02.2-.037.3-.053l.05-.008c.09-.014.181-.024.272-.035l.077-.009c.088-.009.176-.015.265-.02l.084-.006q.174-.009.35-.009a1.183 1.183 0 0 0 1.183-1.183v-8.593a1.183 1.183 0 0 0-2.366 0v7.47a9.241 9.241 0 0 0-5.315 2.572c-.154.15-.3.306-.442.465V13.554a6.951 6.951 0 0 1 5.753-6.838v35.657a1.183 1.183 0 1 0 2.366 0V19.5h34.36l-6.541 6.541a1.183 1.183 0 0 0 1.673 1.673l8.561-8.561 7.744-7.744 5.432 5.432-.637.637L37.222 41.34l-5.432-5.432 4.7-4.7a1.183 1.183 0 0 0-1.673-1.673l-5.537 5.536a1.186 1.186 0 0 0-.083.093l-.025.033c-.009.011-.033.045-.048.068l-.025.041c-.013.022-.026.044-.037.067l-.021.045-.029.07c0 .008-.007.016-.01.025L26.7 42.044 25.125 46.5a1.2 1.2 0 0 0-.047.18h-3.935a1.183 1.183 0 1 0 0 2.366h32.766a1.183 1.183 0 1 0 0-2.366H30.4l7.216-2.547.018-.007c.028-.01.056-.022.083-.034l.032-.015c.028-.014.056-.03.084-.046l.027-.016c.029-.018.056-.038.083-.059l.02-.015a1.189 1.189 0 0 0 .1-.085L62.406 19.5H72.68v25.279L55.756 61.7a1.183 1.183 0 0 0 0 1.673 1.208 1.208 0 0 0 .09.081 1.182 1.182 0 0 0 1.583-.081l20.815-20.811zM35.058 42.522l-3.389 1.2-2.258-2.258 1.2-3.389z" class="prefix__cls-1" data-name="Path 235" transform="translate(0 -.82)"/>
            </g>
        </g>
    </g>
</svg>
