<svg xmlns="http://www.w3.org/2000/svg" width="83" height="83" viewBox="0 0 83 83">
    <defs>
        <style>
            .prefix__cls-1{fill:#fff}
        </style>
    </defs>
    <g id="prefix__dashboard" transform="translate(-1 -1)">
        <path id="prefix__Path_236" d="M75.968 45.887V19.635a9.366 9.366 0 1 0-10.71-9.264H1v53.548h40.23a21.406 21.406 0 1 0 34.738-18.032zm-1.339-42.21a6.694 6.694 0 1 1-6.694 6.694 6.7 6.7 0 0 1 6.694-6.694zM3.677 13.048h61.976a9.365 9.365 0 0 0 1.482 2.925l-8.188 8.188a3.876 3.876 0 0 0-3.442 0l-2.7-2.7a3.979 3.979 0 0 0 .4-1.722 4.016 4.016 0 0 0-8.032 0 3.95 3.95 0 0 0 .4 1.72l-6.714 6.714a3.979 3.979 0 0 0-1.722-.4 4.016 4.016 0 1 0 4.016 4.016 3.95 3.95 0 0 0-.4-1.72l6.714-6.714a3.882 3.882 0 0 0 3.442 0l2.7 2.7a3.979 3.979 0 0 0-.4 1.722 4.016 4.016 0 1 0 8.032 0 3.95 3.95 0 0 0-.4-1.72l8.189-8.188a9.314 9.314 0 0 0 4.262 1.77v24.422a21.289 21.289 0 0 0-26.774 4.4V42.5h-8.034v16.065h3.068a21.475 21.475 0 0 0-.323 2.677H3.677zm53.549 13.387a1.339 1.339 0 1 1-1.339 1.339 1.34 1.34 0 0 1 1.339-1.339zm-9.371-6.694a1.339 1.339 0 1 1 1.339 1.339 1.34 1.34 0 0 1-1.339-1.338zM38.484 31.79a1.339 1.339 0 1 1-1.339-1.339 1.34 1.34 0 0 1 1.339 1.339zm24.1 41.5a10.71 10.71 0 1 1 10.71-10.71 10.722 10.722 0 0 1-10.713 10.71zM43.839 52.234a21.258 21.258 0 0 0-1.592 3.653h-1.086v-10.71h2.677zm17.4-8.327v5.355a13.359 13.359 0 0 0-10.853 18.813l-4.644 2.681a18.678 18.678 0 0 1 15.5-26.849zm1.339 37.416a18.733 18.733 0 0 1-15.513-8.24l4.663-2.692a13.343 13.343 0 0 0 21.7 0l4.663 2.692a18.733 18.733 0 0 1-15.51 8.24zm16.841-10.567l-4.644-2.681a13.359 13.359 0 0 0-10.856-18.813v-5.355a18.678 18.678 0 0 1 15.5 26.849z" class="prefix__cls-1" data-name="Path 236"/>
        <path id="prefix__Path_237" d="M46.413 41a5.413 5.413 0 1 0 5.413 5.413A5.418 5.418 0 0 0 46.413 41zm0 9.022a3.609 3.609 0 1 1 3.609-3.609 3.612 3.612 0 0 1-3.609 3.609z" class="prefix__cls-1" data-name="Path 237" transform="translate(17.739 17.739)"/>
        <path id="prefix__Path_238" d="M5 12h1.8v1.8H5z" class="prefix__cls-1" data-name="Path 238" transform="translate(-.391 3.886)"/>
        <path id="prefix__Path_239" d="M9 12h12.63v1.8H9z" class="prefix__cls-1" data-name="Path 239" transform="translate(-.783 3.886)"/>
        <path id="prefix__Path_240" d="M5 16h1.8v1.8H5z" class="prefix__cls-1" data-name="Path 240" transform="translate(-.391 5.299)"/>
        <path id="prefix__Path_241" d="M9 16h12.63v1.8H9z" class="prefix__cls-1" data-name="Path 241" transform="translate(-.783 5.299)"/>
        <path id="prefix__Path_242" d="M5 20h1.8v1.8H5z" class="prefix__cls-1" data-name="Path 242" transform="translate(-.391 6.712)"/>
        <path id="prefix__Path_243" d="M9 20h12.63v1.8H9z" class="prefix__cls-1" data-name="Path 243" transform="translate(-.783 6.712)"/>
        <path id="prefix__Path_244" d="M5 24h1.8v1.8H5z" class="prefix__cls-1" data-name="Path 244" transform="translate(-.391 8.125)"/>
        <path id="prefix__Path_245" d="M9 24h12.63v1.8H9z" class="prefix__cls-1" data-name="Path 245" transform="translate(-.783 8.125)"/>
        <path id="prefix__Path_246" d="M5 43.022h5.413V34H5zM6.8 35.8h1.8v5.413H6.8z" class="prefix__cls-1" data-name="Path 246" transform="translate(-.391 13.948)"/>
        <path id="prefix__Path_247" d="M13 43.217h5.413V36H13zm1.8-5.417h1.8v3.609h-1.8z" class="prefix__cls-1" data-name="Path 247" transform="translate(4.626 14.118)"/>
        <path id="prefix__Path_248" d="M21 42.435h5.413V28H21zM22.8 29.8h1.8v10.83h-1.8z" class="prefix__cls-1" data-name="Path 248" transform="translate(7.71 13.245)"/>
    </g>
</svg>
