<svg xmlns="http://www.w3.org/2000/svg" width="76.87" height="76.87" viewBox="0 0 76.87 76.87">
    <defs>
        <style>
            .prefix__cls-1{fill:#fff}
        </style>
    </defs>
    <g id="prefix__Outlines" transform="translate(-2 -2)">
        <g id="prefix__Group_61" data-name="Group 61" transform="translate(2 2)">
            <ellipse id="prefix__Ellipse_207" cx="1.5" cy="2" class="prefix__cls-1" data-name="Ellipse 207" rx="1.5" ry="2" transform="translate(39.87 38)"/>
            <ellipse id="prefix__Ellipse_208" cx="1.5" cy="2" class="prefix__cls-1" data-name="Ellipse 208" rx="1.5" ry="2" transform="translate(44.87 38)"/>
            <ellipse id="prefix__Ellipse_209" cx="1" cy="2" class="prefix__cls-1" data-name="Ellipse 209" rx="1" ry="2" transform="translate(49.87 38)"/>
            <path id="prefix__Path_249" d="M32.249 33.281A1.281 1.281 0 0 0 30.968 32h-7.687a1.281 1.281 0 1 0 0 2.562h7.687a1.281 1.281 0 0 0 1.281-1.281z" class="prefix__cls-1" data-name="Path 249" transform="translate(3.623 6.435)"/>
            <circle id="prefix__Ellipse_210" cx="1.5" cy="1.5" r="1.5" class="prefix__cls-1" data-name="Ellipse 210" transform="translate(39.87 28)"/>
            <circle id="prefix__Ellipse_211" cx="1.5" cy="1.5" r="1.5" class="prefix__cls-1" data-name="Ellipse 211" transform="translate(44.87 28)"/>
            <ellipse id="prefix__Ellipse_212" cx="1" cy="1.5" class="prefix__cls-1" data-name="Ellipse 212" rx="1" ry="1.5" transform="translate(49.87 28)"/>
            <path id="prefix__Path_250" d="M30.968 24h-7.687a1.281 1.281 0 1 0 0 2.562h7.687a1.281 1.281 0 0 0 0-2.562z" class="prefix__cls-1" data-name="Path 250" transform="translate(3.623 4.186)"/>
            <ellipse id="prefix__Ellipse_213" cx="1.5" cy="1" class="prefix__cls-1" data-name="Ellipse 213" rx="1.5" ry="1" transform="translate(39.87 18)"/>
            <ellipse id="prefix__Ellipse_214" cx="1.5" cy="1" class="prefix__cls-1" data-name="Ellipse 214" rx="1.5" ry="1" transform="translate(44.87 18)"/>
            <circle id="prefix__Ellipse_215" cx="1" cy="1" r="1" class="prefix__cls-1" data-name="Ellipse 215" transform="translate(49.87 18)"/>
            <path id="prefix__Path_251" d="M23.281 16a1.281 1.281 0 1 0 0 2.562h7.687a1.281 1.281 0 0 0 0-2.562z" class="prefix__cls-1" data-name="Path 251" transform="translate(3.623 1.936)"/>
            <path id="prefix__Path_252" d="M51.681 56.075a1.281 1.281 0 1 0-1.812 1.812l2.059 2.057-7.249 7.249-3.4-3.4a1.281 1.281 0 0 0-1.507-.225 20.347 20.347 0 0 1-3.555 1.481 1.281 1.281 0 0 0-.9 1.225v4.8H25.061v-4.8a1.281 1.281 0 0 0-.9-1.225 20.347 20.347 0 0 1-3.561-1.485 1.281 1.281 0 0 0-1.507.225l-3.4 3.4-7.25-7.245 3.4-3.4a1.281 1.281 0 0 0 .225-1.507 20.466 20.466 0 0 1-1.481-3.556 1.281 1.281 0 0 0-1.225-.9h-4.8V40.326h4.8a1.281 1.281 0 0 0 1.225-.9 20.467 20.467 0 0 1 1.481-3.556 1.281 1.281 0 0 0-.225-1.507l-3.4-3.4 7.249-7.249 2.058 2.059a1.281 1.281 0 1 0 1.812-1.812L16.6 20.99a1.281 1.281 0 0 0-1.813 0l-9.061 9.06a1.281 1.281 0 0 0 0 1.813l3.654 3.652a22.986 22.986 0 0 0-.938 2.248H3.281A1.281 1.281 0 0 0 2 39.045v12.811a1.281 1.281 0 0 0 1.281 1.281h5.161a22.987 22.987 0 0 0 .938 2.248l-3.654 3.653a1.281 1.281 0 0 0 0 1.813l9.059 9.059a1.281 1.281 0 0 0 1.813 0l3.653-3.654a23.039 23.039 0 0 0 2.248.938v5.161a1.281 1.281 0 0 0 1.281 1.281h12.811a1.281 1.281 0 0 0 1.281-1.281v-5.161a23.038 23.038 0 0 0 2.248-.938l3.653 3.654a1.281 1.281 0 0 0 1.813 0l9.059-9.059a1.281 1.281 0 0 0 0-1.813z" class="prefix__cls-1" data-name="Path 252" transform="translate(-2 3.234)"/>
            <path id="prefix__Path_253" d="M15.206 40.006a1.281 1.281 0 0 0-1.153 1.4 14.039 14.039 0 0 0 20.1 11.274 1.281 1.281 0 1 0-1.111-2.306 11.369 11.369 0 0 1-4.962 1.156 11.484 11.484 0 0 1-11.472-10.377 1.281 1.281 0 0 0-1.4-1.147z" class="prefix__cls-1" data-name="Path 253" transform="translate(1.387 8.684)"/>
            <path id="prefix__Path_254" d="M73.09 14.812h-3.528c-.07-.178-.143-.355-.223-.533l2.5-2.5a1.281 1.281 0 0 0 0-1.812L66.4 4.535a1.281 1.281 0 0 0-1.812 0l-2.5 2.5c-.178-.078-.355-.152-.533-.224v-3.53A1.281 1.281 0 0 0 60.278 2h-7.687a1.281 1.281 0 0 0-1.281 1.281v3.527c-.178.072-.355.146-.533.224l-2.5-2.5a1.281 1.281 0 0 0-1.812 0l-5.431 5.439a1.281 1.281 0 1 0 1.813 1.812l4.529-4.53 2.233 2.233a1.281 1.281 0 0 0 1.5.229 11.47 11.47 0 0 1 1.869-.782 1.281 1.281 0 0 0 .9-1.222V4.562H59v3.15a1.281 1.281 0 0 0 .9 1.222 11.47 11.47 0 0 1 1.869.781 1.281 1.281 0 0 0 1.5-.229L65.5 7.252l3.624 3.624-2.239 2.234a1.281 1.281 0 0 0-.229 1.5 11.632 11.632 0 0 1 .782 1.868 1.281 1.281 0 0 0 1.222.9h3.149V22.5h-3.15a1.281 1.281 0 0 0-1.222.9 11.631 11.631 0 0 1-.781 1.868 1.281 1.281 0 0 0 .229 1.5L69.118 29l-3.624 3.62-2.233-2.233a1.281 1.281 0 0 0-1.5-.229 11.47 11.47 0 0 1-1.869.782 1.281 1.281 0 0 0-.9 1.222v4.43a1.281 1.281 0 1 0 2.562 0v-3.528c.178-.072.355-.146.533-.224l2.5 2.5a1.281 1.281 0 0 0 1.812 0l.286-.283V50.92a3.843 3.843 0 0 0-2.327 2.327H51.31v-1.282a1.281 1.281 0 0 0-1.281-1.281h-8.968v-2.562h14.093a1.281 1.281 0 0 0 1.281-1.281V16.093a1.281 1.281 0 0 0-1.281-1.281h-8.968a1.281 1.281 0 1 0 0 2.562h7.687v7.687H20.562v-7.687h20.5a1.281 1.281 0 1 0 0-2.562H19.281A1.281 1.281 0 0 0 18 16.093v30.748a1.281 1.281 0 0 0 1.281 1.281h5.125a1.281 1.281 0 0 0 0-2.562h-3.844v-7.687h33.31v7.687H29.53a1.281 1.281 0 1 0 0 2.562h3.843v2.562h-7.686a1.281 1.281 0 0 0-1.281 1.281v1.281h-3.844a1.281 1.281 0 1 0 0 2.562h3.843v1.282a1.281 1.281 0 0 0 1.281 1.281h24.343a1.281 1.281 0 0 0 1.281-1.281v-1.281h13.048a3.835 3.835 0 1 0 4.889-4.889V32.492l2.589-2.592a1.281 1.281 0 0 0 0-1.812l-2.5-2.5c.079-.178.152-.355.223-.533h3.531a1.281 1.281 0 0 0 1.281-1.281v-7.681a1.281 1.281 0 0 0-1.281-1.281zM20.562 35.31v-7.687h33.31v7.687zm28.186 20.5h-21.78v-2.563h7.687a1.281 1.281 0 0 0 1.281-1.281v-3.844H38.5v3.843a1.281 1.281 0 0 0 1.281 1.281h8.968zm19.217 0a1.281 1.281 0 1 1 1.281-1.281 1.281 1.281 0 0 1-1.281 1.28z" class="prefix__cls-1" data-name="Path 254" transform="translate(2.499 -2)"/>
            <path id="prefix__Path_255" d="M50.527 21.473a1.281 1.281 0 1 0 1.537 2.043 7.629 7.629 0 0 0 0-12.235 1.283 1.283 0 0 0-1.545 2.05 5.068 5.068 0 0 1 0 8.148z" class="prefix__cls-1" data-name="Path 255" transform="translate(11.482 .537)"/>
        </g>
    </g>
</svg>
