<svg xmlns="http://www.w3.org/2000/svg" width="55" height="70.716" viewBox="0 0 55 70.716">
    <path id="prefix__student" d="M81.774 70.715H66.818a1.762 1.762 0 0 1-1.762-1.762V51a1.762 1.762 0 0 1 1.762-1.762h1.338a1.763 1.763 0 0 1 .424 3.473V67.19h11.561a1.763 1.763 0 0 1 3.4.664v1.1a1.762 1.762 0 0 1-1.767 1.761zm7.133-6.742H73.951a1.762 1.762 0 0 1-1.762-1.762V44.262a1.762 1.762 0 0 1 1.762-1.762h14.957a1.762 1.762 0 0 1 1.762 1.762V62.21a1.762 1.762 0 0 1-1.762 1.763zm-13.194-3.525h11.432V46.024H75.713zm-38.281.318A1.763 1.763 0 0 1 35.8 58.34l6.074-14.97c1.877-4.624 3.857-7.9 6.234-10.3a15.707 15.707 0 0 1 11.565-4.8h8.057c6.183 0 10.984 2.882 14.678 8.81a1.762 1.762 0 1 1-2.992 1.864c-2.071-3.323-4.455-5.437-7.325-6.447l-6.967 9.548a1.762 1.762 0 0 1-2.847 0l-6.972-9.554C51.1 33.959 47.924 37.836 45.14 44.7l-6.074 14.97a1.762 1.762 0 0 1-1.634 1.096zM59.168 31.8l4.532 6.21 4.537-6.21c-.167-.006-.335-.008-.506-.008h-8.057q-.255-.003-.506.008zm22.964 26.228h-1.406a1.762 1.762 0 1 1 0-3.525h1.406a1.762 1.762 0 0 1 0 3.525zm.7-6.058h-2.809a1.762 1.762 0 0 1 0-3.525h2.812a1.762 1.762 0 1 1 0 3.525zm-19-28.618A11.677 11.677 0 0 1 60.563.465l.07-.021a11.649 11.649 0 0 1 2.4-.418.041.041 0 0 1 .012 0h.023c.138-.009.278-.015.417-.02h.4A11.631 11.631 0 0 1 75.439 10.4a11.683 11.683 0 0 1-11.606 12.951zM59.813 4.586a8.151 8.151 0 1 0 12.095 8.205q-.462.036-.929.037a11.629 11.629 0 0 1-11.166-8.242zm3.37-1.036A8.117 8.117 0 0 0 70.98 9.3q.324 0 .645-.025a8.165 8.165 0 0 0-7.733-5.754h-.073q-.319.004-.635.028z" transform="translate(-35.67 .001)" style="fill:#041243"/>
</svg>
