<svg xmlns="http://www.w3.org/2000/svg" id="prefix__student" width="75.068" height="75.068" viewBox="0 0 75.068 75.068">
    <defs>
        <style>
            .prefix__cls-1{fill:#004c97}
        </style>
    </defs>
    <g id="prefix__Group_275" data-name="Group 275">
        <g id="prefix__Group_274" data-name="Group 274">
            <path id="prefix__Path_352" d="M73.817 46.292h-2.5V27.525a1.252 1.252 0 0 0-.418-.933 1.224 1.224 0 0 0-.976-.309l-3.613.417v-4.18a1.251 1.251 0 0 0-1.42-1.24l-14.859 2.027a14.829 14.829 0 0 0 2.516-8.294 15.014 15.014 0 1 0-30.027 0 14.829 14.829 0 0 0 2.516 8.294L10.178 21.28a1.251 1.251 0 0 0-1.42 1.24v4.18l-3.61-.417a1.225 1.225 0 0 0-.976.309 1.249 1.249 0 0 0-.419.933v18.767h-2.5A1.251 1.251 0 0 0 0 47.543v15.013a1.251 1.251 0 0 0 1.251 1.251h2.5v6.256a1.25 1.25 0 0 0 1.107 1.242l32.532 3.754a1.186 1.186 0 0 0 .288 0l32.529-3.753a1.25 1.25 0 0 0 1.107-1.242v-6.257h2.5a1.251 1.251 0 0 0 1.251-1.251V47.543a1.251 1.251 0 0 0-1.248-1.251zm-10.01-22.338v3.033l-25.022 2.886v-2.508l8.389-1.144zM2.5 61.305V48.794H5a6.256 6.256 0 0 1 0 12.511zm33.78 11.108L6.256 68.947v-5.23c.1-.014.191-.038.287-.055.118-.021.235-.041.35-.066.161-.035.319-.079.477-.123.109-.03.218-.059.325-.094.165-.054.325-.115.487-.179.094-.036.189-.069.28-.109.186-.08.367-.171.547-.264.061-.031.125-.059.186-.093q.358-.2.7-.423c.039-.026.074-.055.111-.081.183-.128.363-.26.535-.4.071-.059.139-.123.209-.184.133-.116.265-.233.392-.357.075-.074.145-.151.216-.228.113-.119.225-.239.332-.364.071-.084.139-.171.206-.259.1-.125.2-.251.287-.383.065-.094.128-.189.189-.284q.128-.2.244-.4c.058-.1.113-.2.166-.305.073-.139.14-.28.205-.424.048-.105.1-.211.139-.319.06-.149.114-.3.166-.453.036-.108.075-.215.108-.324.048-.161.088-.325.126-.49.025-.106.054-.21.075-.318.036-.184.061-.372.085-.559.013-.093.029-.183.039-.275.025-.278.041-.564.041-.853s-.016-.576-.044-.857c-.009-.093-.026-.184-.039-.275-.024-.188-.049-.375-.085-.558-.021-.108-.05-.213-.075-.319-.039-.164-.078-.329-.126-.489-.033-.11-.071-.216-.108-.324-.053-.153-.106-.3-.166-.453-.044-.108-.091-.213-.139-.319-.065-.144-.133-.285-.205-.424-.054-.1-.109-.205-.166-.305-.078-.136-.159-.269-.244-.4-.063-.1-.124-.191-.19-.285-.091-.13-.188-.256-.285-.382-.069-.088-.135-.174-.208-.259-.106-.125-.218-.245-.332-.364-.073-.076-.143-.154-.216-.228-.126-.124-.259-.24-.392-.357-.07-.061-.136-.125-.209-.184-.17-.14-.349-.27-.529-.4-.04-.028-.076-.059-.118-.086-.224-.151-.457-.292-.694-.423-.06-.033-.125-.06-.186-.093-.179-.093-.36-.183-.547-.264-.091-.04-.186-.073-.28-.109-.161-.063-.322-.125-.487-.179-.108-.035-.216-.063-.325-.094-.156-.044-.314-.086-.474-.123-.116-.026-.235-.046-.353-.068-.094-.015-.188-.039-.284-.053V28.929l3.61.417 2.442.282 23.975 2.767zm0-42.538l-25.02-2.888v-3.033l16.634 2.268 8.388 1.144zm1.251-4.863L28.643 23.8a12.374 12.374 0 0 1-3.621-8.784 12.511 12.511 0 1 1 25.023 0 12.374 12.374 0 0 1-3.621 8.784zm31.281 43.935l-30.027 3.466V32.394l23.974-2.766 2.442-.282 3.611-.418v17.464a8.746 8.746 0 0 0 0 17.316zm3.753-7.642h-2.5a6.256 6.256 0 0 1 0-12.511h2.5z" class="prefix__cls-1" data-name="Path 352"/>
        </g>
    </g>
    <g id="prefix__Group_277" data-name="Group 277" transform="translate(42.538 33.782)">
        <g id="prefix__Group_276" data-name="Group 276">
            <path id="prefix__Path_353" d="M294.1 216.32a1.262 1.262 0 0 0-.983-.3l-20.018 2.5a1.25 1.25 0 0 0-1.1 1.241v10.009a1.25 1.25 0 0 0 1.251 1.251 1.291 1.291 0 0 0 .155-.01l20.018-2.5a1.25 1.25 0 0 0 1.1-1.241v-10.011a1.252 1.252 0 0 0-.423-.939zm-2.079 9.843l-17.521 2.189v-7.487l17.516-2.189z" class="prefix__cls-1" data-name="Path 353" transform="translate(-272 -216.009)"/>
        </g>
    </g>
</svg>
