<svg xmlns="http://www.w3.org/2000/svg" id="prefix__virtual-reality" width="95.219" height="67.455" viewBox="0 0 95.219 67.455">
    <defs>
        <style>
            .prefix__cls-1{fill:#041243}
        </style>
    </defs>
    <path id="prefix__Path_222" d="M79.156 30.07a1.3 1.3 0 0 0-1.611 1.265v17.238A137.672 137.672 0 0 1 47.6 51.527a137.672 137.672 0 0 1-29.942-2.954V31.335a1.3 1.3 0 0 0-1.611-1.265C8.726 31.859-.006 35.114-.006 40.462v34.9a5.754 5.754 0 0 0 1.845 4.018c5.6 5.773 23.991 9.651 45.761 9.651a158.773 158.773 0 0 0 20.641-1.285c16.89-2.225 26.972-6.854 26.972-12.383v-34.9c0-5.348-8.732-8.6-16.057-10.391zm.993 2.942c9.15 2.46 12.46 5.424 12.46 7.449a2.359 2.359 0 0 1-.045.408c-.414 2-3.863 4.742-12.416 7.042zm-1.03 17.846c.013 0 9.456-2.18 13.49-5.668v28.083L76.488 67.62a1.3 1.3 0 0 0-1.116.123l-19.118 11.88-31.918-14.6a1.311 1.311 0 0 0-1.2.062L3.077 76.788a2.61 2.61 0 0 1-.477-1.425V45.191a21.963 21.963 0 0 0 4.045 2.5 54.888 54.888 0 0 0 9.449 3.174c8.881 2.212 20.373 3.273 31.516 3.273a137.829 137.829 0 0 0 31.509-3.28zM15.058 33.012v14.9c-8.555-2.3-12-5.041-12.416-7.042a2.358 2.358 0 0 1-.045-.408c.003-2.025 3.312-4.99 12.461-7.45zM47.6 86.428c-18.955 0-36.2-3.2-42.587-7.757l18.85-10.987L63.276 85.7c-4.999.479-10.252.728-15.676.728zm20.671-1.312l-2.339-1.068-6.844-3.124 17.12-10.638L92.5 76c-.94 3.059-8.617 7.011-24.229 9.115z" class="prefix__cls-1" data-name="Path 222" transform="translate(.006 -21.576)"/>
    <path id="prefix__Path_223" d="M68.721 82.141a5.939 5.939 0 1 0-5.94-5.939 5.94 5.94 0 0 0 5.94 5.939zm0-9.275a3.336 3.336 0 1 1-3.336 3.334 3.336 3.336 0 0 1 3.336-3.334z" class="prefix__cls-1" data-name="Path 223" transform="translate(-16.074 -31.879)"/>
    <path id="prefix__Path_224" d="M59.287 41.075h4.44a5.027 5.027 0 0 0 5.021-5.021V33.59a5.027 5.027 0 0 0-5.021-5.021H56.87v-4.883a2.42 2.42 0 0 1 2.418-2.418h8.159a1.3 1.3 0 0 0 0-2.6h-8.16a5.027 5.027 0 0 0-5.021 5.021v12.365a5.027 5.027 0 0 0 5.021 5.021zm-2.418-9.9h6.857a2.42 2.42 0 0 1 2.418 2.418v2.464a2.42 2.42 0 0 1-2.418 2.418h-4.44a2.42 2.42 0 0 1-2.418-2.418z" class="prefix__cls-1" data-name="Path 224" transform="translate(-13.893 -18.665)"/>
    <path id="prefix__Path_225" d="M85.3 41.075h4.44a5.027 5.027 0 0 0 5.021-5.021V23.686a5.027 5.027 0 0 0-5.021-5.021H85.3a5.027 5.027 0 0 0-5.021 5.021v12.368a5.027 5.027 0 0 0 5.021 5.021zm-2.415-17.389a2.42 2.42 0 0 1 2.415-2.417h4.44a2.42 2.42 0 0 1 2.418 2.418v12.367a2.42 2.42 0 0 1-2.418 2.418H85.3a2.42 2.42 0 0 1-2.418-2.418z" class="prefix__cls-1" data-name="Path 225" transform="translate(-20.556 -18.665)"/>
    <path id="prefix__Path_226" d="M29.552 38.471a1.3 1.3 0 0 0 0 2.6h11.879a1.3 1.3 0 0 0 1.3-1.3v-5.44a1.3 1.3 0 0 0-.521-1.041l-4.554-3.422 4.554-3.422a1.3 1.3 0 0 0 .521-1.041v-5.438a1.3 1.3 0 0 0-1.3-1.3H29.552a1.3 1.3 0 0 0 0 2.6h10.577v3.49l-5.419 4.072a1.3 1.3 0 0 0 0 2.083l5.419 4.071v3.489z" class="prefix__cls-1" data-name="Path 226" transform="translate(-7.23 -18.665)"/>
</svg>
